{"glyphs":{"0":{"ha":688,"x_min":41,"x_max":647,"o":"m 387 923 l 387 923 q 544 813 483 907 q 626 586 604 719 q 625 323 647 454 q 534 102 603 192 q 345 4 465 12 q 161 78 230 2 q 66 272 92 153 q 55 519 41 391 q 120 751 69 648 q 256 901 172 855 q 387 923 314 932 m 344 106 l 344 106 q 424 182 395 113 q 463 354 454 252 q 463 559 472 456 q 429 735 454 662 q 361 821 403 809 q 306 804 331 828 q 248 688 270 769 q 220 507 227 607 q 225 314 214 407 q 266 163 236 222 q 344 106 295 104 z "},"1":{"ha":458,"x_min":41,"x_max":417,"o":"m 41 808 l 41 808 q 223 932 124 869 l 417 926 q 387 477 395 674 q 377 -1 378 279 q 242 -1 309 -2 q 216 751 205 339 q 181 732 199 742 q 107 690 145 712 q 41 808 73 749 z "},"2":{"ha":685,"x_min":41,"x_max":644,"o":"m 583 877 l 583 877 q 642 712 644 815 q 558 468 640 609 q 300 149 476 326 q 413 151 367 150 q 490 152 460 151 q 536 152 519 152 q 558 153 552 153 q 565 153 565 153 q 532 2 532 2 l 95 2 l 41 118 q 251 330 140 212 q 440 558 361 447 q 522 747 519 670 q 489 827 520 808 q 412 793 458 846 q 315 589 366 741 q 98 608 98 608 q 279 892 150 818 q 435 935 351 934 q 583 877 520 935 z "},"3":{"ha":696,"x_min":41,"x_max":655,"o":"m 591 868 l 591 868 q 647 750 638 823 q 610 600 655 677 q 449 459 564 522 q 574 346 538 423 q 594 186 610 269 q 522 61 577 106 q 391 4 466 16 q 243 12 317 -7 q 118 86 172 31 q 41 237 64 141 q 63 247 41 237 q 116 271 85 258 q 171 296 146 285 q 287 144 224 179 q 389 138 349 110 q 433 231 428 168 q 401 359 438 294 q 277 463 364 425 l 277 513 q 411 582 345 539 q 514 680 477 625 q 530 794 551 734 q 480 821 517 826 q 401 767 444 815 q 323 620 358 718 q 311 624 323 620 q 263 637 298 627 q 165 665 229 647 q 274 879 196 817 q 441 934 353 941 q 591 868 530 926 z "},"4":{"ha":671,"x_min":41,"x_max":630,"o":"m 429 422 l 429 422 q 436 932 424 680 l 630 926 q 600 477 609 674 q 590 -1 591 279 q 455 -1 522 -2 q 433 297 439 137 l 41 304 q 68 480 41 304 q 145 936 96 656 q 275 927 236 928 q 315 926 315 926 q 256 625 275 728 q 228 458 237 521 q 221 418 224 437 q 429 422 345 421 z "},"5":{"ha":661,"x_min":41,"x_max":620,"o":"m 82 573 l 82 573 q 104 847 98 757 q 111 936 107 890 q 620 930 620 930 q 603 837 609 870 q 594 790 596 803 q 591 777 591 777 q 334 779 414 777 q 247 780 279 781 q 238 705 241 741 q 234 644 235 668 q 233 620 233 620 q 392 628 320 649 q 513 555 465 608 q 577 437 562 503 q 566 235 599 338 q 454 70 533 133 q 334 16 404 33 q 188 12 264 -1 q 41 77 111 24 l 104 226 q 305 153 220 143 q 434 227 391 163 q 468 369 478 290 q 397 477 454 444 q 269 507 340 510 q 140 473 198 505 l 82 573 z "},"6":{"ha":701,"x_min":41,"x_max":661,"o":"m 315 641 l 315 641 q 532 570 452 639 q 636 400 612 501 q 632 202 661 300 q 524 45 603 104 q 318 -2 445 -15 q 156 73 218 12 q 67 224 94 135 q 46 409 41 313 q 87 588 52 505 q 245 814 137 697 q 477 995 353 930 q 479 995 477 995 l 607 926 q 445 778 530 859 q 315 641 359 696 m 497 149 l 497 149 q 535 305 557 223 q 434 446 513 387 q 244 510 355 505 q 193 325 186 418 q 248 166 199 233 q 364 89 296 100 q 497 149 432 78 z "},"7":{"ha":669,"x_min":41,"x_max":628,"o":"m 92 937 l 92 937 l 568 932 l 628 829 q 453 412 513 573 q 345 99 393 252 q 311 -2 328 51 q 163 0 224 -1 q 102 0 102 0 q 301 536 230 351 q 387 768 355 679 q 41 755 41 755 q 92 937 92 937 z "},"8":{"ha":646,"x_min":41,"x_max":605,"o":"m 530 765 l 530 765 q 496 532 551 671 q 597 289 589 416 q 528 72 605 162 q 286 -28 450 -19 q 136 22 197 -30 q 58 157 75 73 q 84 339 41 241 q 249 529 128 437 q 163 658 175 605 q 162 808 140 734 q 257 923 184 882 q 375 937 317 953 q 475 874 433 921 q 530 765 517 827 m 352 849 l 352 849 q 294 793 306 840 q 307 692 283 746 q 395 605 332 637 q 417 795 439 734 q 352 849 395 855 m 307 75 l 307 75 q 416 124 375 76 q 468 240 458 172 q 452 372 478 309 q 358 465 426 435 q 233 292 262 380 q 227 141 204 203 q 307 75 249 79 z "},"9":{"ha":701,"x_min":41,"x_max":661,"o":"m 383 948 l 383 948 q 545 872 483 934 q 634 722 607 810 q 655 537 661 633 q 614 357 650 441 q 455 124 564 248 q 222 -64 345 1 q 220 -64 222 -64 l 92 5 q 255 160 169 73 q 387 304 342 248 q 169 375 249 307 q 65 545 90 444 q 70 743 41 646 q 177 901 98 841 q 383 948 256 960 m 457 436 l 457 436 q 508 621 515 528 q 454 779 502 713 q 338 857 406 845 q 205 797 270 868 q 166 640 144 722 q 268 499 189 558 q 457 436 347 441 z "},"\u0000":{"ha":0,"x_min":0,"x_max":0,"o":""}," ":{"ha":345,"x_min":0,"x_max":0,"o":""},"!":{"ha":294,"x_min":41,"x_max":253,"o":"m 78 -1 l 78 -1 q 65 131 71 62 l 214 131 q 213 -1 213 69 q 78 -1 145 -2 m 61 190 l 61 190 q 58 932 41 551 l 253 926 q 227 551 235 716 q 215 190 218 386 l 61 190 z "},"\"":{"ha":409,"x_min":41,"x_max":368,"o":"m 129 932 l 129 932 q 180 893 165 930 q 189 808 194 857 q 161 718 183 760 q 160 717 161 718 q 159 714 159 715 q 156 710 157 712 q 92 718 128 668 q 52 867 41 802 q 129 932 64 932 m 303 932 l 303 932 q 354 893 340 930 q 363 808 368 857 q 335 718 357 760 q 335 718 335 718 q 334 717 334 718 q 332 711 333 714 q 330 710 331 711 q 267 718 302 668 q 227 867 215 802 q 303 932 239 932 z "},"#":{"ha":902,"x_min":41,"x_max":861,"o":"m 861 521 l 861 521 l 630 516 l 604 432 l 811 437 l 811 300 l 564 304 l 503 111 l 470 -3 l 365 26 l 397 140 l 444 307 l 345 309 l 288 111 l 258 -5 l 152 22 l 181 137 l 225 311 l 159 312 l 41 312 l 41 422 l 159 421 l 254 424 l 275 509 l 210 508 l 92 504 l 87 613 l 207 617 l 304 623 l 382 936 l 515 903 l 437 631 l 536 637 l 618 935 l 750 897 l 671 646 l 857 658 l 861 521 m 477 429 l 477 429 l 501 513 l 403 512 l 378 427 l 477 429 z "},"$":{"ha":616,"x_min":41,"x_max":575,"o":"m 451 827 l 451 827 q 551 709 517 785 q 573 591 575 656 l 494 593 q 437 707 494 677 q 337 725 388 732 q 251 686 286 718 q 214 609 216 655 q 262 511 212 562 q 317 460 288 485 q 406 372 365 418 q 468 267 448 326 q 433 106 496 176 q 372 66 409 81 l 372 5 l 236 5 l 236 52 q 108 122 159 67 q 49 258 57 176 l 128 263 q 161 182 132 218 q 231 139 191 147 q 309 164 271 130 q 337 244 340 193 q 279 352 334 295 q 202 411 243 385 q 128 466 163 435 q 68 550 87 505 q 55 683 41 617 q 114 795 68 747 q 192 851 147 831 q 236 865 214 861 l 236 926 l 372 926 l 372 862 q 451 827 414 850 z "},"%":{"ha":616,"x_min":41,"x_max":576,"o":"m 75 61 l 75 61 q 229 483 134 256 q 430 924 323 709 l 576 854 q 368 454 455 631 q 168 20 281 276 q 121 40 138 33 q 75 61 103 47 m 370 311 l 370 311 q 442 335 404 342 q 505 290 479 328 q 526 191 530 252 q 479 77 517 109 q 391 56 442 45 q 323 119 337 69 q 323 224 309 168 q 370 311 338 279 m 388 98 l 388 98 q 438 116 420 93 q 463 174 456 140 q 467 235 469 208 q 450 280 463 266 q 422 296 437 294 q 401 291 414 298 q 376 264 389 283 q 355 207 363 243 q 353 137 347 170 q 388 98 359 105 m 111 621 l 111 621 q 55 689 70 642 q 51 786 41 736 q 95 868 61 836 q 183 891 128 899 q 255 818 245 876 q 243 701 264 760 q 199 630 226 651 q 111 621 155 597 m 186 849 l 186 849 q 123 808 144 854 q 108 712 102 763 q 153 650 114 662 q 190 669 174 648 q 213 720 205 691 q 223 768 222 749 q 218 821 227 798 q 186 849 210 844 z "},"&":{"ha":865,"x_min":41,"x_max":825,"o":"m 705 556 l 705 556 q 720 488 709 542 q 726 357 730 433 q 686 201 722 281 q 772 124 732 158 q 825 77 802 98 l 713 -5 q 600 87 661 31 q 585 74 593 80 q 387 -2 491 -2 q 309 8 347 -2 q 69 243 138 62 q 57 409 41 326 q 128 553 73 491 q 278 629 192 621 q 338 880 257 801 q 468 923 390 928 q 611 845 555 915 l 519 774 q 469 792 496 799 q 427 766 441 785 q 402 705 409 744 q 412 606 395 667 q 494 424 440 507 q 613 273 549 340 q 627 379 630 328 q 612 468 623 431 q 595 518 601 505 q 594 522 594 521 l 705 556 m 376 129 l 376 129 q 527 161 459 110 q 394 333 454 239 q 300 530 333 428 q 247 516 269 529 q 214 490 225 503 q 205 287 152 417 q 278 182 232 224 q 376 129 325 140 z "},"'":{"ha":234,"x_min":41,"x_max":193,"o":"m 129 932 l 129 932 q 179 893 165 930 q 188 808 193 857 q 161 718 182 760 q 160 718 160 718 q 159 717 160 718 q 155 710 157 713 q 92 718 127 668 q 52 867 41 802 q 129 932 64 932 z "},"(":{"ha":361,"x_min":41,"x_max":321,"o":"m 196 944 l 196 944 l 321 880 q 216 615 247 758 q 208 331 185 473 q 317 72 231 189 l 199 0 q 69 303 97 138 q 75 635 41 469 q 196 944 109 801 z "},")":{"ha":361,"x_min":41,"x_max":321,"o":"m 41 880 l 41 880 l 165 944 q 286 635 252 801 q 292 303 321 469 q 162 0 264 138 l 44 72 q 153 331 131 189 q 145 615 176 473 q 41 880 114 758 z "},"*":{"ha":355,"x_min":41,"x_max":315,"o":"m 201 831 l 201 831 q 267 869 235 866 q 310 841 300 872 q 285 800 315 814 q 219 789 255 786 q 273 736 262 766 q 258 688 285 707 q 214 699 235 677 q 184 754 193 720 q 149 690 174 709 q 98 692 123 672 q 98 739 81 711 q 145 783 114 766 q 68 796 95 777 q 54 846 41 815 q 100 860 67 869 q 157 824 132 850 q 139 900 133 867 q 180 932 146 932 q 210 897 205 929 q 201 831 215 864 z "},"+":{"ha":618,"x_min":41,"x_max":577,"o":"m 370 730 l 370 730 q 371 524 371 630 q 577 525 475 524 l 572 399 q 371 401 460 402 q 372 194 371 296 l 246 198 q 248 399 250 311 q 44 399 156 397 l 41 523 q 204 524 119 524 q 246 524 225 524 q 246 726 245 616 l 370 730 z "},",":{"ha":216,"x_min":41,"x_max":175,"o":"m 119 194 l 119 194 q 163 148 151 182 q 161 76 175 114 q 100 13 146 37 q 59 10 75 2 q 59 41 43 18 q 62 46 60 43 q 72 60 68 52 q 77 79 77 68 q 71 97 76 90 q 59 111 66 104 q 47 125 52 117 q 41 145 41 133 q 64 188 41 173 q 119 194 88 203 z "},"-":{"ha":618,"x_min":41,"x_max":577,"o":"m 41 523 l 41 523 q 260 524 146 524 q 577 525 421 524 l 572 399 q 272 400 401 404 q 45 399 169 397 l 41 523 z "},".":{"ha":249,"x_min":41,"x_max":208,"o":"m 42 1 l 42 1 q 41 73 41 35 q 41 153 41 113 l 208 153 q 207 4 208 83 q 146 3 178 3 q 42 1 92 0 z "},"/":{"ha":508,"x_min":41,"x_max":467,"o":"m 41 40 l 41 40 q 156 474 83 240 q 315 932 229 707 l 467 875 q 297 458 368 642 q 138 7 227 273 q 89 23 107 17 q 41 40 71 29 z "},":":{"ha":249,"x_min":41,"x_max":208,"o":"m 42 476 l 42 476 q 41 551 41 512 q 41 628 41 589 l 208 628 q 208 566 208 598 q 207 479 207 524 q 152 478 180 479 q 42 476 94 476 m 42 222 l 42 222 q 41 297 41 258 q 41 374 41 335 l 208 374 q 208 313 208 344 q 207 226 207 271 q 148 224 178 225 q 42 222 92 222 z "},";":{"ha":249,"x_min":41,"x_max":208,"o":"m 42 476 l 42 476 q 41 551 41 512 q 41 628 41 589 l 208 628 q 207 479 208 558 q 152 478 181 479 q 42 476 94 476 m 135 371 l 135 371 q 179 325 167 359 q 176 253 191 291 q 116 190 162 215 q 75 187 91 179 q 75 218 59 195 q 78 223 76 220 q 88 237 83 229 q 92 256 92 245 q 86 274 91 267 q 75 288 81 281 q 62 302 67 294 q 56 322 56 310 q 80 365 56 350 q 135 371 103 380 z "},"<":{"ha":416,"x_min":41,"x_max":376,"o":"m 313 711 l 313 711 l 376 633 l 183 470 l 376 306 l 313 229 l 41 470 l 313 711 z "},"=":{"ha":452,"x_min":41,"x_max":412,"o":"m 41 617 l 41 617 q 273 617 152 618 q 412 617 342 617 l 412 503 q 272 501 339 503 q 44 500 169 499 l 41 617 m 41 439 l 41 439 q 239 439 136 439 q 412 439 325 439 l 412 325 q 272 323 339 325 q 44 322 169 321 l 41 439 z "},">":{"ha":416,"x_min":41,"x_max":376,"o":"m 41 633 l 41 633 l 104 711 l 376 470 l 104 229 l 41 306 l 233 470 l 41 633 z "},"?":{"ha":553,"x_min":41,"x_max":513,"o":"m 163 5 l 163 5 q 165 92 163 50 l 279 92 q 275 5 275 50 l 163 5 m 399 901 l 399 901 q 502 770 479 857 q 505 674 513 732 q 448 542 496 616 q 438 527 443 534 q 433 519 435 524 q 345 361 388 457 q 283 127 302 265 l 168 127 q 238 408 188 300 q 340 584 289 515 q 349 596 345 590 q 355 605 351 601 q 392 743 406 682 q 347 801 382 781 q 218 794 283 831 q 154 681 154 752 l 41 681 q 72 802 41 746 q 160 891 104 857 q 399 901 280 959 z "},"@":{"ha":867,"x_min":41,"x_max":827,"o":"m 516 909 l 516 909 q 700 810 631 891 q 798 614 768 728 q 822 382 827 499 q 785 178 817 265 q 679 66 745 79 q 558 103 613 52 q 495 246 503 153 q 397 191 456 193 q 286 228 338 188 q 216 342 233 267 q 210 496 201 416 q 243 629 219 575 q 297 705 269 681 q 350 735 326 729 q 426 738 385 746 q 492 694 467 729 q 494 743 493 720 l 600 743 q 617 288 605 548 q 622 235 618 271 q 636 167 627 199 q 663 133 646 136 q 706 179 680 130 q 746 347 738 244 q 732 554 753 449 q 654 733 710 659 q 503 814 598 806 q 351 793 422 824 q 191 662 242 749 q 137 473 139 575 q 178 281 136 370 q 298 145 220 193 q 483 123 376 98 l 506 29 q 425 20 467 20 q 327 34 377 20 q 228 79 277 47 q 138 164 180 111 q 50 399 60 267 q 102 669 41 532 q 273 862 164 798 q 516 909 382 925 m 494 376 l 494 376 q 494 526 498 441 q 491 616 491 575 q 416 673 467 673 q 376 659 395 673 q 342 609 357 644 q 322 491 323 557 q 334 369 320 425 q 378 294 349 313 q 451 303 416 276 q 494 376 487 331 z "},"A":{"ha":783,"x_min":41,"x_max":742,"o":"m 466 959 l 466 959 q 571 825 527 924 q 647 596 616 727 q 697 332 677 465 q 730 97 718 199 q 742 6 736 44 l 649 -7 q 629 140 639 66 q 604 323 618 232 l 246 323 q 212 109 226 206 q 192 -12 200 35 l 41 14 q 77 230 60 119 q 121 489 97 360 q 179 738 144 618 q 235 866 197 801 q 332 964 274 932 q 466 959 390 996 m 587 431 l 587 431 q 540 657 567 553 q 517 721 533 687 q 476 773 502 755 q 411 774 450 791 q 328 652 363 747 q 267 431 292 557 l 587 431 z "},"B":{"ha":784,"x_min":41,"x_max":829,"o":"m 642 294 l 642 294 q 646 164 662 227 q 577 54 629 101 q 460 2 528 13 q 332 20 392 -9 q 279 66 299 37 q 254 157 251 106 q 329 287 261 242 q 492 349 396 332 q 395 409 460 394 l 393 476 q 469 488 429 479 q 543 515 509 496 q 607 587 591 543 q 609 674 623 631 q 554 740 595 717 q 446 747 513 762 q 346 696 395 734 q 260 593 296 659 q 214 431 224 528 q 207 4 208 253 q 71 4 138 3 q 44 454 48 208 q 52 941 41 699 l 247 934 q 232 741 238 830 l 256 785 q 377 893 303 852 q 539 928 452 933 q 652 874 608 920 q 712 764 696 828 q 717 637 729 699 q 531 436 683 493 q 607 364 576 408 q 796 369 717 371 q 829 369 814 369 l 829 302 q 814 302 823 302 q 796 302 806 302 q 791 302 793 302 q 640 300 727 303 q 641 296 640 298 q 642 294 641 295 m 433 94 l 433 94 q 508 176 486 122 q 518 287 530 231 q 382 243 438 275 q 321 153 326 212 q 356 90 320 106 q 433 94 393 74 z "},"C":{"ha":596,"x_min":41,"x_max":555,"o":"m 311 -5 l 311 -5 q 127 123 201 12 q 61 298 81 197 q 45 506 41 399 q 81 701 51 609 q 166 855 111 792 q 250 917 203 896 q 375 939 311 946 q 492 885 440 932 q 549 808 526 855 l 463 768 q 441 801 455 788 q 404 810 428 814 q 357 786 378 805 q 245 593 283 718 q 210 341 207 469 q 267 136 214 214 q 339 85 298 94 q 425 88 380 76 q 513 123 470 100 l 555 39 q 311 -5 435 -24 z "},"D":{"ha":847,"x_min":41,"x_max":901,"o":"m 431 3 l 431 3 q 308 38 355 -1 q 254 140 260 78 q 295 264 248 202 q 385 329 330 306 q 506 359 439 352 q 626 366 564 367 q 647 478 642 416 q 638 600 652 541 q 583 699 624 659 q 439 736 522 755 q 290 612 356 716 q 212 311 224 508 l 211 311 q 207 4 208 178 q 71 4 139 3 q 44 454 48 208 q 52 941 41 699 l 247 934 q 233 760 239 840 q 290 845 259 810 q 419 928 349 913 q 561 901 493 944 q 673 753 637 848 q 715 551 709 657 q 707 361 721 445 q 833 345 777 355 q 901 332 872 338 l 886 266 q 822 279 861 272 q 694 295 765 289 q 627 136 671 205 q 564 62 600 93 q 431 3 496 8 m 358 233 l 358 233 q 321 166 328 202 q 337 111 314 130 q 422 117 361 93 q 599 298 530 165 q 514 293 555 298 q 358 233 415 283 z "},"E":{"ha":667,"x_min":41,"x_max":627,"o":"m 238 436 l 238 436 q 87 535 134 463 q 44 693 41 607 q 96 845 48 779 q 230 928 144 912 q 414 915 336 942 q 544 840 492 888 q 627 746 597 793 l 540 658 q 413 752 495 718 q 255 766 331 785 q 174 705 198 747 q 161 612 149 662 q 225 524 173 563 q 376 476 278 486 l 374 409 q 270 333 302 392 q 249 205 239 273 q 311 93 258 137 q 397 66 347 65 q 495 86 446 68 q 580 126 545 104 l 616 70 q 479 12 557 33 q 325 0 401 -8 q 193 54 249 7 q 118 192 130 112 q 137 342 105 273 q 238 436 168 411 z "},"F":{"ha":560,"x_min":41,"x_max":519,"o":"m 103 941 l 103 941 q 519 932 314 942 l 514 764 q 235 785 360 777 q 222 581 227 677 q 501 573 363 580 l 494 431 q 216 447 340 443 q 207 6 208 264 q 71 7 139 5 q 44 456 48 210 q 52 943 41 702 l 103 941 z "},"G":{"ha":692,"x_min":41,"x_max":652,"o":"m 68 298 l 68 298 q 67 563 41 427 q 142 759 88 669 q 281 901 195 848 q 349 930 315 921 q 498 923 427 951 q 617 820 571 895 q 652 737 640 783 l 553 710 q 514 775 546 751 q 428 785 482 798 q 288 681 348 762 q 202 488 229 600 q 196 260 176 376 q 266 135 213 183 q 381 83 319 87 q 488 131 444 79 q 519 267 527 186 q 471 408 511 348 q 410 452 442 446 q 340 452 378 458 q 298 449 320 450 l 292 555 q 439 558 372 563 q 553 519 506 554 q 619 406 601 479 q 631 255 637 333 q 601 123 625 178 q 484 11 559 39 q 326 0 408 -18 q 180 78 243 19 q 68 298 95 164 z "},"H":{"ha":684,"x_min":41,"x_max":643,"o":"m 207 4 l 207 4 q 71 4 139 3 q 44 454 48 208 q 52 941 41 699 l 247 934 q 217 483 225 681 l 504 494 q 526 940 505 727 l 643 927 q 621 491 621 718 q 638 19 621 220 l 521 9 q 505 378 507 165 l 212 366 q 207 4 208 212 z "},"I":{"ha":288,"x_min":41,"x_max":247,"o":"m 52 941 l 52 941 l 247 934 q 217 483 225 681 q 207 4 208 285 q 71 4 139 3 q 44 454 48 208 q 52 941 41 699 z "},"J":{"ha":455,"x_min":41,"x_max":414,"o":"m 252 7 l 252 7 q 137 1 195 -14 q 41 64 78 17 l 117 120 q 155 94 132 100 q 233 127 210 73 q 258 280 256 180 q 250 496 260 379 q 228 719 240 613 q 210 931 210 865 l 407 931 q 410 764 407 861 q 414 490 414 632 q 398 238 414 348 q 350 98 387 162 q 252 7 313 35 z "},"K":{"ha":724,"x_min":41,"x_max":684,"o":"m 640 9 l 640 9 l 441 7 q 399 147 431 67 q 319 298 368 227 q 214 405 271 370 q 207 4 208 237 q 72 4 139 3 q 45 454 49 208 q 52 941 41 699 l 248 934 q 220 546 229 717 q 391 698 328 592 q 466 934 454 804 l 684 928 q 603 721 671 821 q 443 554 534 622 q 273 471 352 486 q 402 396 337 445 q 520 284 467 348 q 607 150 574 221 q 640 9 640 79 z "},"L":{"ha":530,"x_min":41,"x_max":489,"o":"m 489 123 l 489 123 l 489 4 l 176 4 q 117 4 146 3 q 71 4 94 4 q 44 454 48 208 q 52 941 41 699 l 248 934 q 219 528 228 706 q 208 123 210 350 l 489 123 z "},"M":{"ha":1061,"x_min":41,"x_max":1020,"o":"m 756 924 l 756 924 q 889 916 837 947 q 970 821 941 884 q 1009 686 998 758 q 1018 553 1020 613 q 1011 262 1014 418 q 1008 3 1008 106 q 872 3 940 1 q 870 157 871 62 q 869 353 869 253 q 867 539 868 465 q 806 847 868 803 q 747 841 774 867 q 701 776 720 816 q 674 713 682 736 q 635 565 649 642 q 616 425 621 488 q 611 195 613 309 q 608 3 610 81 q 473 4 541 2 q 472 160 473 63 q 470 357 471 257 q 468 550 469 476 q 461 637 468 576 q 439 759 454 698 q 399 847 424 821 q 337 829 374 873 q 297 764 314 799 q 275 713 281 728 q 229 521 243 619 q 212 362 214 423 q 206 4 208 210 q 71 4 138 3 q 44 454 48 208 q 52 941 41 699 l 247 934 q 235 791 241 859 q 288 874 258 840 q 357 924 318 909 q 403 932 380 933 q 500 889 458 932 q 566 759 543 846 q 571 731 568 753 q 579 686 575 709 q 584 658 582 669 q 586 646 585 647 q 611 735 595 692 q 671 853 635 803 q 756 924 707 904 z "},"N":{"ha":797,"x_min":41,"x_max":756,"o":"m 619 3 l 619 3 q 462 74 523 7 q 362 242 401 142 q 296 444 324 342 q 226 642 262 564 q 207 4 208 377 q 72 4 139 3 q 44 454 48 208 q 52 941 41 699 q 100 939 76 940 q 194 936 148 939 q 311 860 267 928 q 384 692 356 793 q 433 481 412 591 q 474 302 452 386 q 528 164 496 219 q 608 99 559 109 q 598 941 577 498 l 756 933 q 726 483 735 681 q 716 3 718 285 q 675 3 690 3 q 642 3 661 3 q 619 3 632 3 z "},"O":{"ha":849,"x_min":41,"x_max":920,"o":"m 577 79 l 577 79 q 398 -11 492 -5 q 223 40 304 -17 q 96 199 142 96 q 46 422 52 301 q 77 659 41 544 q 195 854 113 773 q 338 934 254 909 q 502 938 421 959 q 618 855 578 913 q 664 718 659 796 q 665 691 665 705 q 714 524 706 616 q 707 349 722 432 q 678 245 697 298 q 784 295 736 260 q 868 377 832 331 l 920 335 q 800 225 869 270 q 646 174 730 180 q 577 79 617 121 m 600 669 l 600 669 q 549 698 574 697 q 475 655 500 700 q 443 552 450 610 q 441 454 437 494 q 495 314 452 378 q 605 241 538 250 q 641 361 630 301 q 647 519 654 434 q 600 669 640 605 m 300 722 l 300 722 q 222 524 246 634 q 207 310 199 414 q 282 116 220 180 q 425 65 345 52 q 572 179 505 79 q 426 256 487 198 q 337 395 366 314 q 334 649 297 522 q 391 743 352 705 q 480 791 429 781 q 585 772 531 802 q 570 806 579 791 q 463 850 530 859 q 368 805 408 842 q 300 722 328 768 z "},"P":{"ha":754,"x_min":41,"x_max":713,"o":"m 210 227 l 210 227 q 207 4 208 126 q 72 4 139 3 q 44 454 48 208 q 52 941 41 699 l 247 934 q 244 895 245 913 q 239 828 241 860 q 312 900 269 871 q 406 937 354 928 q 538 918 475 948 q 679 754 631 874 q 701 526 713 655 q 667 375 693 454 q 593 232 641 296 q 474 139 546 168 q 374 127 427 121 q 210 227 270 141 m 223 608 l 223 608 q 220 557 222 582 q 217 416 212 484 q 267 286 222 349 q 349 225 300 242 q 450 227 397 208 q 561 345 527 259 q 586 529 594 430 q 532 701 578 629 q 403 780 486 774 q 294 734 345 781 q 223 608 243 688 z "},"Q":{"ha":714,"x_min":41,"x_max":673,"o":"m 537 86 l 537 86 q 419 9 486 32 q 277 9 352 -14 q 175 75 220 28 q 100 189 130 122 q 48 406 56 286 q 71 641 41 526 q 170 840 100 755 q 283 926 222 899 q 406 951 344 953 q 454 947 431 951 q 600 851 553 926 q 644 684 646 779 q 640 625 644 654 q 661 530 655 580 q 652 325 673 429 q 593 162 634 236 l 663 104 l 604 32 l 537 86 m 421 812 l 421 812 q 301 672 350 769 q 232 460 252 574 q 229 249 212 345 q 306 111 245 153 q 389 97 348 85 q 465 145 431 109 l 403 196 l 462 269 l 519 222 q 560 344 547 278 q 568 518 578 433 q 530 640 559 588 q 450 710 501 691 l 481 799 q 537 770 512 788 q 491 821 522 808 q 421 812 460 833 z "},"R":{"ha":751,"x_min":41,"x_max":711,"o":"m 649 -18 l 649 -18 q 487 -13 549 -31 q 386 40 425 5 q 319 113 348 75 q 270 170 296 144 q 209 210 244 195 q 207 4 208 116 q 71 4 138 3 q 44 454 48 208 q 52 941 41 699 l 247 934 q 239 828 242 878 q 279 873 257 854 q 406 937 338 927 q 538 918 475 948 q 678 754 630 874 q 702 553 711 664 q 646 347 693 444 q 480 187 582 226 q 403 169 441 172 q 509 111 452 119 q 642 121 566 102 l 649 -18 m 214 410 l 214 410 q 292 263 227 313 q 455 249 358 214 q 556 363 526 281 q 578 541 587 446 q 525 705 570 635 q 403 780 481 774 q 299 739 349 781 q 228 625 250 697 q 216 549 218 593 q 214 461 214 505 q 214 410 214 433 z "},"S":{"ha":717,"x_min":41,"x_max":676,"o":"m 144 230 l 144 230 q 184 134 150 176 q 266 81 218 92 q 359 111 314 71 q 393 207 396 146 q 325 335 390 267 q 232 406 281 375 q 144 471 186 433 q 73 570 96 517 q 57 728 41 650 q 127 863 74 806 q 220 928 167 905 q 358 954 288 957 q 529 900 451 950 q 648 760 608 849 q 674 619 676 697 l 580 623 q 563 706 581 672 q 512 758 545 740 q 393 779 454 788 q 290 732 332 770 q 247 640 248 695 q 304 524 245 585 q 369 463 335 494 q 475 359 426 414 q 549 233 525 304 q 556 132 566 182 q 508 43 546 83 q 417 -12 473 6 q 348 -26 382 -23 q 146 37 231 -32 q 51 223 62 106 l 144 230 z "},"T":{"ha":812,"x_min":41,"x_max":771,"o":"m 308 802 l 308 802 q 60 770 182 795 l 41 917 q 771 917 406 990 l 753 770 q 497 802 627 795 q 476 427 482 604 q 468 4 469 250 q 332 4 399 3 q 308 802 294 366 z "},"U":{"ha":777,"x_min":41,"x_max":736,"o":"m 552 90 l 552 90 q 417 -2 498 20 q 255 4 336 -24 q 116 114 173 33 q 51 330 58 195 q 56 941 41 634 l 250 934 q 214 301 220 592 q 263 101 214 158 q 378 55 312 44 q 492 122 444 65 q 541 264 541 180 q 542 941 526 598 l 736 934 q 706 483 715 681 q 696 4 698 285 q 561 4 629 3 q 552 90 556 46 z "},"V":{"ha":895,"x_min":41,"x_max":854,"o":"m 481 3 l 481 3 q 358 96 420 3 q 240 329 296 189 q 139 612 184 469 q 65 853 94 754 q 41 934 50 905 l 250 934 q 316 707 286 823 q 370 486 345 592 q 413 305 393 385 q 454 178 434 225 q 488 130 473 132 q 523 178 504 129 q 586 408 545 233 q 705 934 627 583 l 852 934 l 854 934 q 721 389 784 593 q 599 95 659 186 q 481 3 540 5 z "},"W":{"ha":1137,"x_min":41,"x_max":1097,"o":"m 428 3 l 428 3 q 321 82 372 3 q 225 285 270 161 q 144 543 180 409 q 81 784 107 676 q 41 934 56 885 l 250 934 q 302 673 268 870 q 347 428 323 551 q 394 220 371 304 q 435 130 416 135 q 471 213 451 133 q 512 412 491 293 q 551 652 533 532 l 659 652 q 703 418 679 537 q 749 217 726 299 q 789 130 771 135 q 833 252 808 135 q 884 525 859 369 q 927 802 909 680 q 948 934 943 909 l 1095 934 l 1097 934 q 979 389 1027 593 q 884 95 930 186 q 781 3 839 5 q 681 72 728 2 q 590 254 633 142 q 514 64 552 124 q 428 3 475 5 z "},"X":{"ha":1133,"x_min":41,"x_max":1092,"o":"m 989 3 l 989 3 l 772 6 q 529 341 661 146 q 123 -75 301 111 q 85 -42 102 -55 q 41 -4 66 -28 q 446 465 171 166 q 191 860 303 682 q 144 934 166 900 l 389 934 q 586 614 480 782 q 972 1012 823 866 l 1092 884 q 671 482 910 720 q 989 3 833 231 z "},"Y":{"ha":724,"x_min":41,"x_max":684,"o":"m 527 166 l 527 166 q 412 87 480 111 q 275 75 345 63 q 154 141 205 87 q 79 300 104 198 q 48 520 55 401 q 43 745 41 638 q 49 920 45 852 q 50 931 49 926 l 244 924 q 241 882 243 908 q 220 593 229 772 q 231 293 210 414 q 298 174 251 204 q 399 161 346 144 q 489 232 452 178 q 524 365 526 286 q 496 714 513 550 q 480 931 481 868 l 677 931 q 680 765 677 869 q 683 405 684 596 q 666 94 682 213 q 618 -46 654 18 q 519 -137 581 -110 q 405 -143 463 -159 q 309 -80 346 -127 l 385 -24 q 423 -51 399 -44 q 500 -8 476 -70 q 527 166 524 54 z "},"Z":{"ha":802,"x_min":41,"x_max":762,"o":"m 137 943 l 137 943 q 611 926 378 926 l 762 802 q 533 518 648 656 q 240 146 383 339 q 308 149 275 148 q 618 151 472 155 l 625 -3 q 385 8 491 6 q 149 11 279 11 q 91 56 119 31 q 41 96 67 77 q 228 400 108 229 q 471 736 348 572 q 512 792 492 764 q 498 791 505 791 q 134 789 300 785 l 137 943 z "},"[":{"ha":401,"x_min":41,"x_max":361,"o":"m 47 926 l 47 926 q 205 927 133 928 q 361 925 277 927 l 357 789 q 218 794 274 793 q 201 794 210 794 q 187 464 191 618 q 184 113 183 309 q 210 113 197 113 q 345 118 261 114 l 351 5 q 218 3 271 3 q 83 4 165 3 q 49 448 57 205 q 47 926 41 690 z "},"\\":{"ha":508,"x_min":41,"x_max":467,"o":"m 41 875 l 41 875 l 193 932 q 352 474 279 707 q 467 40 426 240 q 463 39 465 39 q 418 23 435 28 q 370 7 400 17 q 211 458 281 273 q 41 875 140 642 z "},"]":{"ha":401,"x_min":41,"x_max":361,"o":"m 51 925 l 51 925 q 183 927 131 927 q 319 926 236 928 q 353 483 345 725 q 354 4 361 240 q 196 3 269 3 q 41 5 124 3 l 44 141 q 201 136 138 136 q 215 467 211 312 q 217 817 218 622 q 205 817 211 817 q 140 815 174 817 q 56 812 106 814 l 51 925 z "},"^":{"ha":564,"x_min":41,"x_max":524,"o":"m 41 656 l 41 656 l 282 928 l 524 656 l 446 593 l 282 785 l 118 593 l 41 656 z "},"_":{"ha":444,"x_min":41,"x_max":403,"o":"m 41 1 l 41 1 l 403 2 l 403 -82 l 41 -78 l 41 1 z "},"`":{"ha":238,"x_min":41,"x_max":197,"o":"m 102 924 l 102 924 q 152 881 132 917 q 184 799 173 845 q 197 717 196 753 q 186 673 197 680 q 142 696 168 666 q 93 764 116 726 q 57 836 74 793 q 59 909 41 879 q 102 924 74 928 z "},"a":{"ha":599,"x_min":41,"x_max":558,"o":"m 214 707 l 214 707 q 377 701 296 725 q 505 604 458 676 q 553 437 548 531 q 551 252 558 342 q 551 245 551 249 q 529 -1 544 123 q 394 -1 462 -2 q 393 60 393 31 q 380 45 387 52 q 216 -23 313 -24 q 201 -22 207 -22 q 131 3 163 -18 q 79 56 100 22 q 45 173 48 106 q 78 357 41 266 q 190 498 117 450 q 276 527 229 524 q 279 528 278 527 q 286 528 283 528 q 379 499 336 528 q 378 519 378 509 l 377 519 q 358 584 376 557 q 313 625 341 610 q 254 642 286 640 q 191 632 221 644 q 140 594 161 621 q 112 526 119 568 l 45 535 q 88 637 56 597 q 167 694 121 677 q 215 707 190 704 q 214 707 214 707 q 214 707 214 707 m 333 92 l 333 92 q 391 212 381 143 q 387 368 389 298 q 370 414 382 395 q 269 385 319 429 q 189 269 220 340 q 162 133 158 197 q 223 44 167 68 q 223 44 223 44 q 223 44 223 44 q 333 92 287 45 z "},"b":{"ha":817,"x_min":41,"x_max":857,"o":"m 631 342 l 631 342 q 857 351 783 357 l 853 283 q 625 275 779 290 q 579 121 614 190 q 430 -5 530 22 q 306 9 355 -22 q 258 61 274 29 q 247 131 242 93 q 316 244 252 191 q 412 295 355 275 q 533 328 469 316 q 534 328 534 328 q 534 328 534 328 q 521 412 532 372 q 474 499 507 463 q 398 545 441 536 q 308 517 355 553 q 243 423 267 481 q 215 314 220 366 q 214 314 215 314 q 214 314 214 314 q 210 234 210 271 q 210 211 210 222 q 210 199 210 204 l 209 199 q 207 -1 208 107 q 72 -1 139 -2 q 44 448 48 202 q 52 935 41 694 l 248 928 q 223 593 231 742 q 254 635 237 616 q 341 701 297 683 q 439 710 393 722 q 521 666 487 698 q 578 590 555 634 q 618 474 606 535 q 631 360 631 412 q 631 342 631 351 m 414 60 l 414 60 q 439 68 427 62 q 439 68 439 68 q 438 68 438 68 q 503 142 479 90 q 532 260 526 194 q 357 191 422 239 q 313 123 317 157 q 319 91 311 105 q 341 66 326 76 q 414 60 368 50 z "},"c":{"ha":610,"x_min":41,"x_max":707,"o":"m 305 87 l 305 87 q 437 88 371 62 q 558 166 504 114 q 644 272 613 219 l 707 229 q 529 49 640 116 q 284 3 418 -18 q 131 88 186 22 q 58 242 76 153 q 56 424 41 332 q 114 589 71 516 q 223 695 157 662 q 348 716 285 724 q 465 663 413 709 q 522 585 498 633 l 441 548 q 391 595 420 585 q 307 582 345 608 q 231 493 256 549 q 197 380 205 437 q 211 202 184 285 q 305 87 237 119 z "},"d":{"ha":680,"x_min":41,"x_max":640,"o":"m 437 687 l 437 687 q 444 935 439 813 l 640 928 q 609 477 618 675 q 599 -1 601 279 q 464 -1 531 -2 q 458 52 460 25 q 312 -9 402 -8 q 155 44 222 -11 q 67 192 94 100 q 49 387 41 285 q 101 574 57 490 q 223 698 144 659 q 437 687 335 748 m 318 70 l 318 70 q 408 96 369 65 q 446 186 448 126 l 448 183 q 436 549 436 358 q 384 591 416 587 q 316 574 351 595 q 229 461 258 538 q 198 296 199 383 q 227 144 197 209 q 318 70 257 79 z "},"e":{"ha":639,"x_min":41,"x_max":735,"o":"m 413 83 l 413 83 q 565 169 499 107 q 672 309 631 231 l 735 269 q 614 111 687 178 q 441 13 541 43 q 284 3 361 -10 q 117 107 174 26 q 51 294 60 188 q 74 502 41 401 q 176 664 106 602 q 348 716 246 726 q 465 663 413 709 q 538 539 518 614 q 518 401 558 465 q 430 327 486 357 q 313 278 375 296 q 198 250 250 260 q 266 112 212 163 q 413 83 319 61 m 306 582 l 306 582 q 240 511 265 555 q 204 416 215 467 q 193 317 193 364 q 298 343 243 327 q 400 387 353 360 q 455 458 446 414 q 447 541 465 501 q 392 595 429 580 q 306 582 355 610 z "},"f":{"ha":555,"x_min":41,"x_max":514,"o":"m 191 142 l 191 142 q 194 -64 194 39 q 195 -163 194 -142 l 78 -173 l 60 -174 q 47 39 52 -80 q 45 83 47 60 q 41 258 41 161 q 54 451 41 355 q 106 623 68 547 q 216 735 144 699 q 341 757 277 764 q 458 703 406 749 q 514 626 492 673 l 399 553 q 351 606 380 595 q 290 589 322 616 q 218 444 241 541 q 191 249 195 347 l 354 249 l 354 142 l 191 142 z "},"g":{"ha":669,"x_min":41,"x_max":628,"o":"m 423 718 l 423 718 l 620 718 q 623 551 620 648 q 628 277 628 419 q 612 24 627 135 q 563 -115 600 -51 q 465 -206 527 -178 q 350 -212 409 -227 q 254 -149 291 -196 l 330 -93 q 368 -119 345 -113 q 447 -85 424 -140 q 472 71 471 -30 q 383 3 440 22 q 264 -6 326 -16 q 155 44 202 5 q 67 192 94 100 q 49 387 41 285 q 101 574 58 490 q 223 698 144 659 q 423 695 326 745 q 423 718 423 708 m 318 70 l 318 70 q 387 86 351 66 q 446 145 422 106 q 467 243 469 185 l 467 242 q 441 507 456 380 q 437 548 439 528 l 437 548 q 384 591 417 587 q 317 574 351 595 q 229 461 259 538 q 199 296 199 383 q 228 144 198 209 q 318 70 257 79 z "},"h":{"ha":651,"x_min":41,"x_max":610,"o":"m 454 696 l 454 696 q 564 596 531 667 q 604 437 597 525 q 608 270 610 350 q 604 -1 605 151 q 469 -1 536 -2 q 449 314 452 161 q 443 468 447 390 q 434 545 441 510 q 412 602 427 581 q 380 628 399 621 q 335 621 360 635 q 277 556 300 600 q 243 479 253 513 q 221 374 229 425 q 210 288 214 322 q 206 -1 208 161 q 71 -1 138 -2 q 44 448 47 202 q 52 935 41 694 l 247 928 q 222 592 231 741 q 272 656 243 629 q 363 704 316 696 q 454 696 410 712 z "},"i":{"ha":292,"x_min":41,"x_max":252,"o":"m 51 776 l 51 776 q 56 935 53 857 l 252 928 q 239 778 245 848 q 239 776 239 777 l 51 776 m 76 -1 l 76 -1 q 50 715 41 322 l 235 715 q 218 384 223 547 q 212 -1 213 221 q 76 -1 144 -2 z "},"j":{"ha":455,"x_min":41,"x_max":414,"o":"m 210 718 l 210 718 l 407 718 q 410 551 407 648 q 414 277 414 419 q 398 24 414 135 q 350 -115 387 -51 q 252 -206 313 -178 q 137 -212 195 -227 q 41 -149 78 -196 l 117 -93 q 155 -119 132 -113 q 234 -86 210 -140 q 259 67 257 -33 q 250 284 260 167 q 228 507 240 401 q 210 718 210 652 m 406 776 l 406 776 l 207 776 q 208 930 204 865 q 402 929 402 929 q 404 859 403 890 q 406 776 405 809 z "},"k":{"ha":684,"x_min":41,"x_max":643,"o":"m 643 713 l 643 713 q 563 525 631 606 q 406 397 495 444 q 241 350 317 351 q 370 307 307 336 q 485 232 433 277 q 568 130 536 188 q 600 2 600 73 l 427 2 q 353 157 414 82 q 210 275 292 233 q 207 -1 208 153 q 71 -1 139 -2 q 44 448 48 202 q 52 935 41 694 l 247 928 q 215 432 223 651 q 381 533 315 463 q 458 718 446 602 l 643 713 z "},"l":{"ha":288,"x_min":41,"x_max":247,"o":"m 71 -1 l 71 -1 q 44 448 47 202 q 52 935 41 694 l 247 928 q 216 477 225 675 q 206 -1 208 279 q 71 -1 138 -2 z "},"m":{"ha":942,"x_min":41,"x_max":901,"o":"m 745 696 l 745 696 q 855 596 822 667 q 895 437 888 525 q 899 270 901 350 q 895 -1 896 151 q 760 -1 827 -2 q 740 314 743 161 q 734 468 738 390 q 725 545 732 510 q 703 602 718 581 q 641 620 673 640 q 593 556 608 601 q 565 402 572 488 q 557 264 557 317 q 553 -1 554 147 q 418 -1 486 -2 q 398 314 401 160 q 392 468 396 390 q 383 545 390 510 q 361 602 376 581 q 299 620 332 640 q 252 556 267 601 q 222 393 230 483 q 215 253 215 302 l 214 253 q 211 -1 212 140 q 76 -1 143 -2 q 50 717 41 323 l 235 717 q 233 684 234 701 q 231 661 232 673 q 311 703 261 692 q 403 696 358 713 q 478 648 449 680 q 524 572 508 615 q 569 657 539 622 q 652 703 600 692 q 745 696 700 713 z "},"n":{"ha":673,"x_min":41,"x_max":632,"o":"m 475 696 l 475 696 q 585 596 552 667 q 625 437 618 525 q 629 270 632 350 q 625 -1 626 151 q 490 -1 557 -2 q 470 314 473 160 q 464 468 468 390 q 464 471 464 469 q 457 537 463 501 q 434 600 452 573 q 379 630 416 627 q 313 598 341 629 q 253 489 275 556 q 223 351 232 422 q 214 224 214 279 q 211 -1 212 123 q 75 -1 143 -2 q 49 717 41 323 l 235 717 q 227 588 230 650 q 279 656 248 628 q 377 704 323 696 q 475 696 430 712 z "},"o":{"ha":654,"x_min":41,"x_max":734,"o":"m 530 250 l 530 250 q 616 293 581 260 q 675 372 652 326 l 734 340 q 645 230 700 273 q 513 181 590 186 q 456 64 493 115 q 355 -15 414 9 q 231 -20 296 -39 q 94 121 142 14 q 54 387 41 238 q 57 406 56 397 q 58 410 57 408 q 149 633 83 560 q 237 701 189 680 q 333 721 285 722 q 392 711 366 721 q 481 639 452 690 q 508 532 509 590 q 500 475 507 503 q 531 365 525 427 q 530 250 538 303 m 402 104 l 402 104 q 444 186 428 140 q 330 257 376 203 q 274 380 283 310 q 284 473 269 431 q 336 537 300 516 q 426 542 372 557 q 441 536 433 540 q 404 606 439 591 q 324 595 369 622 q 216 444 253 545 q 183 238 180 342 q 233 74 186 134 q 322 43 276 28 q 402 104 368 59 m 462 252 l 462 252 q 465 356 470 296 q 434 456 460 416 q 406 478 421 474 q 350 461 365 489 q 340 390 334 433 q 379 301 347 340 q 462 252 412 262 z "},"p":{"ha":671,"x_min":41,"x_max":630,"o":"m 448 698 l 448 698 q 570 574 526 659 q 622 387 613 490 q 604 192 630 285 q 516 44 577 100 q 356 -9 447 -12 q 210 55 266 -7 q 207 -220 208 -66 q 72 -220 139 -220 q 44 230 48 -16 q 52 717 41 475 l 247 710 l 246 694 q 448 698 343 745 m 353 70 l 353 70 q 443 144 414 79 q 472 296 473 209 q 441 461 471 383 q 354 574 412 538 q 287 591 319 595 q 235 548 254 587 l 234 548 q 214 170 220 353 q 274 92 234 118 q 353 70 314 66 z "},"q":{"ha":677,"x_min":41,"x_max":637,"o":"m 441 685 l 441 685 q 442 717 441 701 l 637 710 q 607 259 615 457 q 597 -220 598 62 q 461 -220 529 -220 q 439 57 446 -92 q 301 -5 384 -1 q 155 44 219 -8 q 67 192 94 100 q 49 387 41 285 q 101 574 57 490 q 223 698 144 659 q 441 685 337 749 m 434 248 l 434 248 q 436 549 432 398 q 384 591 416 587 q 317 574 351 595 q 229 461 259 538 q 198 296 199 383 q 227 144 197 209 q 318 70 257 79 q 396 109 363 66 q 435 218 430 151 q 434 248 434 233 l 434 248 z "},"r":{"ha":641,"x_min":41,"x_max":600,"o":"m 232 661 l 232 661 q 384 731 299 728 q 533 671 469 733 q 600 486 597 610 l 444 486 q 409 616 442 580 q 332 638 376 652 q 255 566 288 625 q 220 409 222 507 l 219 409 q 212 -1 213 237 q 76 -1 144 -2 q 50 717 41 323 l 235 717 q 232 661 233 688 z "},"s":{"ha":575,"x_min":41,"x_max":534,"o":"m 180 718 l 180 718 q 349 728 267 751 q 483 637 431 704 q 530 473 534 570 l 417 477 q 388 554 414 522 q 324 594 362 585 q 247 577 286 602 q 208 526 217 558 q 224 453 198 493 q 272 400 243 426 q 329 353 300 375 q 332 351 330 353 q 427 253 393 307 q 444 119 460 199 q 385 30 431 61 q 282 -5 339 -1 q 126 43 191 -10 q 53 187 62 97 l 188 194 q 212 124 192 148 q 258 96 232 100 q 322 127 307 91 q 310 208 338 164 q 257 263 290 236 q 190 315 224 290 q 114 378 147 345 q 63 448 81 412 q 52 553 41 499 q 98 652 63 608 q 180 718 132 696 z "},"t":{"ha":528,"x_min":41,"x_max":488,"o":"m 374 102 l 374 102 q 412 127 397 108 l 488 72 q 392 9 451 24 q 277 15 333 -7 q 178 106 215 42 q 130 245 142 170 q 115 608 109 404 l 41 608 l 41 714 l 117 714 q 119 789 118 752 q 121 876 121 835 l 316 876 q 299 714 310 808 l 437 714 l 437 608 l 288 608 q 270 349 273 474 q 289 151 267 224 q 374 102 311 79 z "},"u":{"ha":661,"x_min":41,"x_max":620,"o":"m 438 314 l 438 314 q 435 717 431 511 l 620 717 q 603 385 608 548 q 596 -1 597 222 q 461 -1 528 -2 q 450 106 455 50 q 304 1 397 17 q 134 54 210 -15 q 77 146 95 93 q 54 259 60 200 q 47 371 49 318 q 47 375 47 373 q 43 717 41 541 l 229 717 q 211 388 216 549 q 211 370 211 380 q 209 251 208 316 q 228 137 211 186 q 301 74 257 67 q 385 132 345 81 q 426 218 414 170 q 438 314 438 266 z "},"v":{"ha":825,"x_min":41,"x_max":927,"o":"m 656 378 l 656 378 q 780 411 722 376 q 867 504 837 446 l 927 475 q 806 348 885 393 q 635 313 726 303 q 525 74 578 149 q 417 -2 471 0 q 312 66 365 -3 q 210 247 260 136 q 117 482 161 357 q 41 717 74 607 l 248 717 q 306 481 280 593 q 350 300 329 380 q 391 174 370 220 q 433 128 414 115 q 495 210 464 152 q 551 344 526 269 q 453 498 469 399 q 490 677 437 596 q 549 726 513 710 q 624 729 584 742 q 684 666 669 711 q 695 566 699 622 q 678 460 691 511 q 656 378 665 409 m 572 411 l 572 411 q 591 485 579 434 q 608 586 603 536 q 600 655 613 635 q 576 663 589 667 q 553 649 563 659 q 522 584 529 623 q 519 510 514 545 q 572 411 527 452 z "},"w":{"ha":1090,"x_min":41,"x_max":1187,"o":"m 1018 399 l 1018 399 q 1128 504 1086 429 l 1187 475 q 1046 338 1134 376 q 914 312 979 309 q 825 87 876 172 q 726 -2 774 3 q 625 67 673 -3 q 534 249 577 137 q 459 60 497 119 q 372 -2 420 0 q 273 66 321 -3 q 182 247 225 136 q 104 482 140 357 q 41 717 68 607 l 238 717 q 246 671 242 694 q 291 426 267 550 q 338 216 315 301 q 380 125 361 130 q 410 189 393 127 q 446 348 427 251 q 481 552 464 445 l 621 552 q 660 351 640 448 q 699 192 680 255 q 733 125 718 129 q 772 186 747 127 q 823 338 797 245 q 735 431 764 371 q 709 557 706 490 q 750 677 713 623 q 821 730 778 716 q 904 720 863 744 q 954 626 947 689 q 952 496 962 564 q 932 385 942 429 q 930 378 931 381 q 1018 399 973 379 m 840 406 l 840 406 q 842 413 841 409 q 864 517 850 448 q 872 637 877 587 q 819 655 861 691 q 793 620 802 638 q 781 504 768 566 q 840 406 793 442 z "},"x":{"ha":896,"x_min":41,"x_max":855,"o":"m 746 784 l 746 784 l 855 674 q 541 375 690 526 q 740 83 635 235 q 797 -1 768 42 l 614 -1 q 419 252 521 114 q 206 30 316 145 q 110 -71 159 -20 q 84 -47 94 -56 q 65 -31 75 -39 q 41 -7 56 -22 q 342 357 159 151 q 98 713 205 547 l 324 713 q 464 492 393 601 q 746 784 614 656 z "},"y":{"ha":651,"x_min":41,"x_max":610,"o":"m 406 718 l 406 718 l 603 718 q 606 551 603 648 q 610 277 610 419 q 594 24 610 135 q 546 -115 583 -51 q 448 -206 510 -178 q 333 -212 391 -227 q 237 -149 274 -196 l 313 -93 q 359 -122 330 -115 q 412 -111 389 -130 q 452 104 465 -54 q 348 19 409 47 q 218 21 288 -9 q 112 134 151 58 q 60 283 73 211 q 41 489 41 389 q 46 670 41 589 q 48 718 47 695 l 243 711 q 235 637 241 682 q 218 491 226 574 q 214 319 211 408 q 226 221 216 279 q 262 117 236 162 q 337 76 289 73 q 415 139 382 82 q 446 286 448 195 q 422 527 435 418 q 406 718 406 655 z "},"z":{"ha":694,"x_min":41,"x_max":653,"o":"m 509 715 l 509 715 l 653 596 q 460 384 563 492 q 242 145 345 264 q 587 142 414 149 l 594 -5 q 361 6 460 4 q 134 9 262 9 q 122 17 127 13 q 79 51 99 35 q 41 83 62 66 q 169 270 93 172 q 331 468 245 368 q 424 581 378 524 q 324 578 369 580 q 105 578 231 574 l 108 720 q 251 713 191 714 q 371 714 311 713 q 509 715 429 715 z "},"{":{"ha":274,"x_min":41,"x_max":233,"o":"m 75 889 l 75 889 q 158 927 110 926 q 233 918 205 927 q 233 898 233 912 q 233 867 233 884 q 233 840 233 851 q 233 827 233 828 q 164 804 180 827 q 153 744 149 781 q 170 663 157 707 q 189 548 188 602 q 137 465 190 493 q 189 382 190 437 q 170 267 188 328 q 153 186 157 224 q 164 126 149 149 q 233 103 180 103 q 233 92 233 103 q 233 64 233 80 q 233 34 233 47 q 233 13 233 20 q 158 4 205 3 q 75 41 110 4 q 53 130 51 73 q 67 250 56 186 q 80 383 80 323 q 41 465 80 443 q 80 547 80 488 q 67 680 80 607 q 53 800 56 744 q 75 889 51 857 z "},"|":{"ha":172,"x_min":41,"x_max":131,"o":"m 42 5 l 42 5 l 41 926 l 131 926 l 126 5 l 42 5 z "},"}":{"ha":274,"x_min":41,"x_max":233,"o":"m 233 465 l 233 465 q 195 383 195 443 q 208 250 195 323 q 221 130 218 186 q 199 41 224 73 q 116 4 164 4 q 41 13 68 3 q 41 33 41 18 q 41 63 41 47 q 41 90 41 79 q 41 103 41 102 q 110 126 94 103 q 121 186 126 149 q 104 267 117 224 q 85 382 87 328 q 137 465 84 437 q 85 548 84 493 q 104 663 87 602 q 121 744 117 707 q 110 804 126 781 q 41 827 94 827 q 41 839 41 827 q 41 866 41 850 q 41 897 41 882 q 41 918 41 911 q 116 927 68 927 q 199 889 164 926 q 221 800 224 857 q 208 680 218 744 q 195 547 195 607 q 233 465 195 488 z "},"~":{"ha":551,"x_min":41,"x_max":510,"o":"m 279 515 l 279 515 q 302 506 290 511 q 413 469 355 481 q 510 499 471 457 q 468 411 505 437 q 379 389 431 386 q 275 411 327 391 q 136 456 197 444 q 41 441 76 469 q 92 517 54 495 q 180 537 130 540 q 279 515 231 535 z "},"¡":{"ha":294,"x_min":41,"x_max":254,"o":"m 62 741 l 62 741 l 216 741 q 227 380 218 545 q 254 5 236 215 l 59 -1 q 62 741 41 380 m 214 932 l 214 932 q 214 837 214 882 q 215 800 214 818 l 66 800 q 79 932 71 869 q 214 932 146 933 z "},"·":{"ha":249,"x_min":41,"x_max":208,"o":"m 42 390 l 42 390 q 41 464 41 426 q 41 541 41 503 l 208 541 q 207 393 208 471 q 148 391 179 393 q 42 390 92 389 z "},"¿":{"ha":554,"x_min":41,"x_max":513,"o":"m 391 928 l 391 928 q 389 841 391 882 l 275 841 q 278 928 278 882 l 391 928 m 336 138 l 336 138 q 400 251 400 180 l 513 251 q 482 131 513 186 q 394 41 450 75 q 155 31 274 -26 q 52 163 75 75 q 49 258 41 200 q 106 391 58 316 q 114 403 110 397 q 121 412 117 408 q 209 571 166 475 q 271 804 252 667 l 385 804 q 315 525 366 633 q 214 349 264 416 q 204 334 209 341 q 199 327 202 330 q 161 190 147 250 q 208 132 172 151 q 336 138 271 101 z "},"À":{"ha":783,"x_min":41,"x_max":742,"o":"m 466 959 l 466 959 q 572 825 528 924 q 647 595 616 726 q 697 332 677 464 q 730 96 718 199 q 742 6 736 44 l 649 -7 q 629 140 639 66 q 604 323 618 231 l 246 323 q 212 109 226 205 q 192 -12 201 34 l 41 14 q 77 230 60 119 q 121 489 97 360 q 179 737 145 618 q 235 866 197 801 q 332 964 274 932 q 466 959 390 996 m 587 431 l 587 431 q 541 657 567 552 q 517 720 533 686 q 476 772 502 754 q 411 773 450 791 q 328 651 363 747 q 267 431 293 556 l 587 431 m 290 1212 l 290 1212 q 373 1175 334 1215 q 432 1086 412 1135 q 439 1016 452 1037 q 396 1014 429 1005 q 328 1047 364 1023 q 268 1105 291 1071 q 251 1181 244 1140 q 290 1212 258 1206 z "},"Á":{"ha":783,"x_min":41,"x_max":742,"o":"m 466 959 l 466 959 q 572 825 528 924 q 647 595 616 726 q 697 332 677 464 q 730 96 718 199 q 742 6 736 44 l 649 -7 q 629 140 639 66 q 604 323 618 231 l 246 323 q 212 109 226 205 q 192 -12 201 34 l 41 14 q 77 230 60 119 q 121 489 97 360 q 179 737 145 618 q 235 866 197 801 q 332 964 274 932 q 466 959 390 996 m 587 431 l 587 431 q 541 657 567 552 q 517 720 533 686 q 476 772 502 754 q 411 773 450 791 q 328 651 363 747 q 267 431 293 556 l 587 431 m 482 1212 l 482 1212 q 399 1175 439 1215 q 340 1086 360 1135 q 333 1016 320 1037 q 375 1014 343 1005 q 445 1047 408 1023 q 505 1105 481 1071 q 521 1181 528 1140 q 482 1212 513 1206 z "},"Â":{"ha":783,"x_min":41,"x_max":742,"o":"m 466 959 l 466 959 q 572 825 528 924 q 647 595 616 726 q 697 332 677 464 q 730 96 718 199 q 742 6 736 44 l 649 -7 q 629 140 639 66 q 604 323 618 231 l 246 323 q 212 109 226 205 q 192 -12 201 34 l 41 14 q 77 230 60 119 q 121 489 97 360 q 179 737 145 618 q 235 866 197 801 q 332 964 274 932 q 466 959 390 996 m 587 431 l 587 431 q 541 657 567 552 q 517 720 533 686 q 476 772 502 754 q 411 773 450 791 q 328 651 363 747 q 267 431 293 556 l 587 431 m 244 1055 l 244 1055 l 391 1244 l 538 1055 l 481 1000 l 391 1122 l 305 996 l 244 1055 z "},"Ã":{"ha":783,"x_min":41,"x_max":742,"o":"m 466 959 l 466 959 q 572 825 528 924 q 647 595 616 726 q 697 332 677 464 q 730 96 718 199 q 742 6 736 44 l 649 -7 q 629 140 639 66 q 604 323 618 231 l 246 323 q 212 109 226 205 q 192 -12 201 34 l 41 14 q 77 230 60 119 q 121 489 97 360 q 179 737 145 618 q 235 866 197 801 q 332 964 274 932 q 466 959 390 996 m 587 431 l 587 431 q 541 657 567 552 q 517 720 533 686 q 476 772 502 754 q 411 773 450 791 q 328 651 363 747 q 267 431 293 556 l 587 431 m 385 1106 l 385 1106 q 393 1104 389 1105 q 450 1088 420 1095 q 507 1088 481 1081 q 547 1126 533 1095 q 535 1051 555 1077 q 479 1020 515 1025 q 404 1025 443 1014 q 299 1045 345 1044 q 234 1016 254 1046 q 281 1108 234 1090 q 385 1106 328 1126 z "},"Ä":{"ha":783,"x_min":41,"x_max":742,"o":"m 466 959 l 466 959 q 572 825 528 924 q 647 595 616 726 q 697 332 677 464 q 730 96 718 199 q 742 6 736 44 l 649 -7 q 629 140 639 66 q 604 323 618 231 l 246 323 q 212 109 226 205 q 192 -12 201 34 l 41 14 q 77 230 60 119 q 121 489 97 360 q 179 737 145 618 q 235 866 197 801 q 332 964 274 932 q 466 959 390 996 m 587 431 l 587 431 q 541 657 567 552 q 517 720 533 686 q 476 772 502 754 q 411 773 450 791 q 328 651 363 747 q 267 431 293 556 l 587 431 m 235 1016 l 235 1016 q 235 1074 235 1044 q 234 1139 235 1106 l 369 1139 q 368 1019 368 1082 q 319 1018 345 1019 q 235 1016 275 1016 m 414 1139 l 414 1139 l 549 1139 q 547 1019 548 1083 q 499 1018 524 1019 q 415 1017 455 1017 q 414 1075 414 1044 q 414 1139 414 1107 z "},"Å":{"ha":783,"x_min":41,"x_max":742,"o":"m 485 947 l 485 947 q 582 802 541 901 q 652 575 623 702 q 699 321 680 448 q 730 96 718 195 q 742 6 736 44 l 649 -7 q 629 139 639 66 q 604 323 618 231 l 246 323 q 212 109 226 205 q 192 -12 201 34 l 41 14 q 77 230 60 119 q 121 489 97 360 q 179 737 145 618 q 224 848 194 791 q 300 943 255 905 q 260 1036 260 981 q 298 1128 260 1090 q 391 1166 336 1166 q 483 1128 444 1166 q 521 1036 521 1090 q 485 947 521 984 m 391 1112 l 391 1112 q 337 1089 359 1112 q 315 1036 315 1067 q 337 982 315 1004 q 391 960 359 960 q 444 982 422 960 q 467 1036 467 1004 q 444 1089 467 1067 q 391 1112 422 1112 m 267 431 l 267 431 l 587 431 q 541 657 567 552 q 517 720 533 686 q 476 772 502 754 q 411 773 450 791 q 328 651 363 747 q 267 431 293 556 z "},"Æ":{"ha":1171,"x_min":41,"x_max":1130,"o":"m 814 92 l 814 92 q 900 66 850 65 q 999 85 949 67 q 1083 126 1048 103 l 1119 69 q 934 2 1040 20 q 739 25 828 -16 q 742 6 741 15 l 649 -7 q 629 140 639 66 q 604 323 618 231 l 246 323 q 212 109 226 205 q 192 -12 201 34 l 41 14 q 77 230 60 119 q 121 489 97 360 q 179 737 145 618 q 235 866 197 801 q 332 964 274 932 q 466 959 390 996 q 578 810 532 920 q 641 887 602 856 q 733 927 680 918 q 918 915 840 941 q 1048 840 996 888 q 1130 745 1100 793 l 1043 658 q 916 751 998 718 q 758 765 834 785 q 677 705 702 747 q 664 612 652 662 q 729 524 676 563 q 880 475 781 486 l 878 408 q 774 332 806 391 q 752 205 742 273 q 814 92 762 137 m 267 431 l 267 431 l 587 431 q 541 657 567 552 q 517 720 533 686 q 476 772 502 754 q 411 773 450 791 q 328 651 363 747 q 267 431 293 556 m 686 404 l 686 404 q 741 435 710 425 q 675 460 705 444 q 686 404 681 431 z "},"È":{"ha":667,"x_min":41,"x_max":627,"o":"m 238 435 l 238 435 q 87 534 134 462 q 44 692 41 606 q 96 845 48 778 q 230 927 144 911 q 414 915 336 941 q 545 840 492 888 q 627 745 597 793 l 540 658 q 413 751 495 718 q 255 765 331 785 q 174 705 199 747 q 161 612 149 662 q 225 524 173 563 q 376 475 278 486 l 375 408 q 271 332 302 391 q 249 205 239 273 q 311 92 259 137 q 397 66 347 65 q 495 85 446 67 q 580 126 545 103 l 616 69 q 479 12 557 32 q 326 -1 402 -8 q 193 54 249 7 q 118 192 130 112 q 137 341 105 272 q 238 435 168 410 m 208 1212 l 208 1212 q 290 1175 251 1215 q 349 1086 329 1135 q 356 1016 370 1037 q 314 1014 346 1005 q 245 1047 281 1023 q 185 1105 208 1071 q 168 1181 161 1140 q 208 1212 176 1206 z "},"É":{"ha":667,"x_min":41,"x_max":627,"o":"m 238 435 l 238 435 q 87 534 134 462 q 44 692 41 606 q 96 845 48 778 q 230 927 144 911 q 414 915 336 941 q 545 840 492 888 q 627 745 597 793 l 540 658 q 413 751 495 718 q 255 765 331 785 q 174 705 199 747 q 161 612 149 662 q 225 524 173 563 q 376 475 278 486 l 375 408 q 271 332 302 391 q 249 205 239 273 q 311 92 259 137 q 397 66 347 65 q 495 85 446 67 q 580 126 545 103 l 616 69 q 479 12 557 32 q 326 -1 402 -8 q 193 54 249 7 q 118 192 130 112 q 137 341 105 272 q 238 435 168 410 m 435 1212 l 435 1212 q 352 1175 391 1215 q 293 1086 313 1135 q 286 1016 273 1037 q 328 1014 296 1005 q 397 1047 360 1023 q 457 1105 434 1071 q 473 1181 481 1140 q 435 1212 466 1206 z "},"Ê":{"ha":667,"x_min":41,"x_max":627,"o":"m 238 435 l 238 435 q 87 534 134 462 q 44 692 41 606 q 96 845 48 778 q 229 927 144 911 q 414 915 336 941 q 544 840 492 888 q 627 745 596 793 l 540 658 q 412 751 494 718 q 254 765 330 785 q 173 705 198 747 q 160 612 149 662 q 225 524 172 563 q 376 475 277 486 l 374 408 q 270 332 302 391 q 249 205 239 273 q 311 92 258 137 q 396 66 347 65 q 495 85 446 67 q 580 126 544 103 l 615 69 q 479 12 556 32 q 325 -1 401 -8 q 192 54 248 7 q 118 192 130 112 q 137 341 105 272 q 238 435 168 410 m 188 1055 l 188 1055 l 335 1244 l 483 1055 l 425 1000 l 335 1122 l 249 996 l 188 1055 z "},"Ë":{"ha":667,"x_min":41,"x_max":627,"o":"m 238 435 l 238 435 q 87 534 134 462 q 44 692 41 606 q 96 845 48 778 q 229 927 144 911 q 414 915 336 941 q 544 840 492 888 q 627 745 596 793 l 540 658 q 412 751 494 718 q 254 765 330 785 q 173 705 198 747 q 160 612 149 662 q 225 524 172 563 q 376 475 277 486 l 374 408 q 270 332 302 391 q 249 205 239 273 q 311 92 258 137 q 396 66 347 65 q 495 85 446 67 q 580 126 544 103 l 615 69 q 479 12 556 32 q 325 -1 401 -8 q 192 54 248 7 q 118 192 130 112 q 137 341 105 272 q 238 435 168 410 m 179 1016 l 179 1016 q 178 1074 178 1044 q 178 1139 179 1106 l 313 1139 q 312 1019 312 1082 q 263 1018 289 1019 q 179 1016 219 1016 m 357 1139 l 357 1139 l 492 1139 q 492 1019 492 1083 q 443 1018 469 1019 q 359 1017 399 1017 q 358 1075 358 1044 q 357 1139 359 1107 z "},"Ì":{"ha":337,"x_min":41,"x_max":296,"o":"m 101 940 l 101 940 l 296 934 q 266 483 275 681 q 256 3 257 285 q 120 4 188 3 q 93 453 97 208 q 101 940 90 699 m 87 1212 l 87 1212 q 170 1175 130 1215 q 229 1086 209 1135 q 235 1016 249 1037 q 194 1014 226 1005 q 124 1047 161 1023 q 64 1105 87 1071 q 48 1181 41 1140 q 87 1212 56 1206 z "},"Í":{"ha":317,"x_min":41,"x_max":276,"o":"m 52 940 l 52 940 l 248 934 q 217 483 226 681 q 207 3 208 285 q 71 4 139 3 q 44 453 48 208 q 52 940 41 699 m 230 1212 l 230 1212 q 148 1175 186 1215 q 88 1086 109 1135 q 81 1016 68 1037 q 124 1014 92 1005 q 193 1047 156 1023 q 253 1105 229 1071 q 269 1181 276 1140 q 230 1212 261 1206 z "},"Î":{"ha":376,"x_min":41,"x_max":336,"o":"m 96 940 l 96 940 l 291 934 q 260 483 269 681 q 250 3 252 285 q 115 4 182 3 q 88 453 92 208 q 96 940 84 699 m 41 1055 l 41 1055 l 188 1244 l 336 1055 l 277 1000 l 188 1122 l 102 996 l 41 1055 z "},"Ï":{"ha":396,"x_min":41,"x_max":355,"o":"m 106 940 l 106 940 l 301 934 q 271 483 279 681 q 260 3 262 285 q 125 4 193 3 q 98 453 102 208 q 106 940 94 699 m 42 1016 l 42 1016 q 41 1074 41 1044 q 41 1139 42 1106 l 176 1139 q 175 1019 175 1082 q 126 1018 152 1019 q 42 1016 82 1016 m 220 1139 l 220 1139 l 355 1139 q 355 1019 355 1083 q 306 1018 332 1019 q 222 1017 262 1017 q 221 1075 221 1044 q 220 1139 222 1107 z "},"Ñ":{"ha":797,"x_min":41,"x_max":756,"o":"m 619 3 l 619 3 q 462 74 523 7 q 362 241 401 141 q 295 444 323 342 q 225 642 262 564 q 207 3 208 377 q 71 4 139 3 q 44 453 48 208 q 52 940 41 699 q 100 939 75 939 q 194 935 147 939 q 311 860 266 927 q 384 691 356 793 q 433 480 412 590 q 474 302 452 385 q 527 163 496 218 q 608 98 559 109 q 598 940 576 498 l 756 933 q 726 482 734 680 q 716 3 718 284 q 675 3 690 3 q 642 3 661 3 q 619 3 632 3 m 394 1117 l 394 1117 q 414 1112 404 1114 q 504 1086 456 1097 q 596 1078 552 1075 q 669 1109 640 1080 q 605 1010 674 1034 q 411 1024 536 987 q 245 1057 319 1052 q 130 1033 171 1061 q 209 1132 144 1109 q 394 1117 273 1154 z "},"Ò":{"ha":827,"x_min":41,"x_max":920,"o":"m 577 79 l 577 79 q 398 -12 492 -6 q 223 39 304 -18 q 96 199 142 96 q 46 422 52 300 q 77 659 41 544 q 195 854 113 773 q 338 934 254 909 q 502 937 421 959 q 618 854 578 913 q 664 717 659 795 q 665 690 665 705 q 714 524 706 615 q 707 349 722 432 q 678 245 697 298 q 784 295 736 259 q 868 377 831 330 l 920 335 q 800 224 869 269 q 646 174 730 180 q 577 79 617 121 m 600 669 l 600 669 q 549 698 574 696 q 474 655 499 699 q 443 552 450 610 q 441 453 437 493 q 494 313 451 378 q 605 241 538 249 q 641 360 630 300 q 647 519 654 434 q 600 669 640 604 m 300 722 l 300 722 q 222 524 246 634 q 207 310 199 414 q 282 115 220 179 q 425 65 345 52 q 571 179 505 78 q 426 256 487 197 q 337 395 366 314 q 334 648 297 522 q 391 743 352 705 q 480 791 429 781 q 585 772 531 801 q 570 806 579 790 q 463 850 530 858 q 368 805 408 842 q 300 722 328 768 m 271 1212 l 271 1212 q 354 1175 315 1215 q 413 1086 393 1135 q 420 1016 433 1037 q 378 1014 410 1005 q 309 1047 346 1023 q 249 1105 272 1071 q 233 1181 225 1140 q 271 1212 240 1206 z "},"Ó":{"ha":827,"x_min":41,"x_max":920,"o":"m 577 79 l 577 79 q 398 -12 492 -6 q 223 39 304 -18 q 96 199 142 96 q 46 422 52 300 q 77 659 41 544 q 195 854 113 773 q 338 934 254 909 q 502 937 421 959 q 618 854 578 913 q 664 717 659 795 q 665 690 665 705 q 714 524 706 615 q 707 349 722 432 q 678 245 697 298 q 784 295 736 259 q 868 377 831 330 l 920 335 q 800 224 869 269 q 646 174 730 180 q 577 79 617 121 m 600 669 l 600 669 q 549 698 574 696 q 474 655 499 699 q 443 552 450 610 q 441 453 437 493 q 494 313 451 378 q 605 241 538 249 q 641 360 630 300 q 647 519 654 434 q 600 669 640 604 m 300 722 l 300 722 q 222 524 246 634 q 207 310 199 414 q 282 115 220 179 q 425 65 345 52 q 571 179 505 78 q 426 256 487 197 q 337 395 366 314 q 334 648 297 522 q 391 743 352 705 q 480 791 429 781 q 585 772 531 801 q 570 806 579 790 q 463 850 530 858 q 368 805 408 842 q 300 722 328 768 m 501 1212 l 501 1212 q 419 1175 458 1215 q 359 1086 380 1135 q 353 1016 339 1037 q 395 1014 363 1005 q 464 1047 427 1023 q 524 1105 500 1071 q 541 1181 547 1140 q 501 1212 532 1206 z "},"Ô":{"ha":827,"x_min":41,"x_max":920,"o":"m 577 79 l 577 79 q 398 -12 492 -6 q 223 39 304 -18 q 96 199 142 96 q 46 422 52 300 q 77 659 41 544 q 195 854 113 773 q 338 934 254 909 q 502 937 421 959 q 618 854 578 913 q 664 717 659 795 q 665 690 665 705 q 714 524 706 615 q 707 349 722 432 q 678 245 697 298 q 784 295 736 259 q 868 377 831 330 l 920 335 q 800 224 869 269 q 646 174 730 180 q 577 79 617 121 m 600 669 l 600 669 q 549 698 574 696 q 474 655 499 699 q 443 552 450 610 q 441 453 437 493 q 494 313 451 378 q 605 241 538 249 q 641 360 630 300 q 647 519 654 434 q 600 669 640 604 m 300 722 l 300 722 q 222 524 246 634 q 207 310 199 414 q 282 115 220 179 q 425 65 345 52 q 571 179 505 78 q 426 256 487 197 q 337 395 366 314 q 334 648 297 522 q 391 743 352 705 q 480 791 429 781 q 585 772 531 801 q 570 806 579 790 q 463 850 530 858 q 368 805 408 842 q 300 722 328 768 m 239 1055 l 239 1055 l 386 1244 l 534 1055 l 475 1000 l 386 1122 l 300 996 l 239 1055 z "},"Õ":{"ha":827,"x_min":41,"x_max":920,"o":"m 577 79 l 577 79 q 398 -12 492 -6 q 223 39 304 -18 q 96 199 142 96 q 46 422 52 300 q 77 659 41 544 q 195 854 113 773 q 338 934 254 909 q 502 937 421 959 q 618 854 578 913 q 664 717 659 795 q 665 690 665 705 q 714 524 705 615 q 707 349 722 432 q 678 245 697 298 q 784 295 736 259 q 868 377 831 330 l 920 335 q 800 224 869 269 q 646 174 730 180 q 577 79 617 121 m 600 669 l 600 669 q 549 698 574 696 q 474 655 499 699 q 443 552 450 610 q 441 453 437 493 q 494 313 451 378 q 605 241 537 249 q 641 360 630 300 q 647 519 654 434 q 600 669 640 604 m 300 722 l 300 722 q 222 524 246 634 q 207 310 199 414 q 282 115 220 179 q 425 65 345 52 q 571 179 505 78 q 426 256 486 197 q 337 395 366 314 q 334 648 297 522 q 391 743 352 705 q 480 791 429 781 q 585 772 531 801 q 570 806 579 790 q 463 850 530 858 q 368 805 408 842 q 300 722 328 768 m 398 1117 l 398 1117 q 485 1093 437 1103 q 578 1088 534 1082 q 650 1126 623 1093 q 638 1043 660 1078 q 563 1000 617 1008 q 420 1025 509 992 q 269 1052 338 1055 q 165 1017 199 1048 q 212 1129 153 1099 q 398 1117 271 1158 z "},"Ö":{"ha":827,"x_min":41,"x_max":920,"o":"m 577 79 l 577 79 q 398 -12 492 -6 q 223 39 304 -18 q 96 199 142 96 q 46 422 52 300 q 77 659 41 544 q 195 854 113 773 q 338 934 254 909 q 502 937 421 959 q 618 854 578 913 q 664 717 659 795 q 665 690 665 705 q 714 524 705 615 q 707 349 722 432 q 678 245 697 298 q 784 295 736 259 q 868 377 831 330 l 920 335 q 800 224 869 269 q 646 174 730 180 q 577 79 617 121 m 600 669 l 600 669 q 549 698 574 696 q 474 655 499 699 q 443 552 450 610 q 441 453 437 493 q 494 313 451 378 q 605 241 537 249 q 641 360 630 300 q 647 519 654 434 q 600 669 640 604 m 300 722 l 300 722 q 222 524 246 634 q 207 310 199 414 q 282 115 220 179 q 425 65 345 52 q 571 179 505 78 q 426 256 486 197 q 337 395 366 314 q 334 648 297 522 q 391 743 352 705 q 480 791 429 781 q 585 772 531 801 q 570 806 579 790 q 463 850 530 858 q 368 805 408 842 q 300 722 328 768 m 224 1016 l 224 1016 q 224 1074 224 1044 q 223 1139 224 1106 l 358 1139 q 357 1019 357 1082 q 309 1018 334 1019 q 224 1016 264 1016 m 403 1139 l 403 1139 l 538 1139 q 537 1019 537 1083 q 488 1018 513 1019 q 404 1017 444 1017 q 404 1075 404 1044 q 403 1139 404 1107 z "},"×":{"ha":547,"x_min":41,"x_max":506,"o":"m 505 608 l 505 608 q 401 504 455 557 q 359 462 380 483 q 506 317 433 387 l 414 231 q 273 375 336 313 q 127 227 198 300 l 41 319 q 185 460 123 397 q 41 604 118 525 l 125 695 q 272 549 196 625 q 414 693 335 616 l 505 608 z "},"Ø":{"ha":827,"x_min":41,"x_max":920,"o":"m 448 416 q 494 313 462 361 q 605 241 537 249 q 641 360 630 300 q 647 519 654 434 q 600 669 640 604 q 549 698 574 696 l 541 698 q 521 638 530 668 q 448 416 484 528 m 331 416 q 334 648 300 532 q 391 743 352 705 q 452 783 418 770 q 476 851 465 818 q 463 850 470 850 q 368 805 408 842 q 300 722 328 768 q 222 524 246 634 q 207 310 199 414 q 253 153 216 214 q 331 416 286 271 m 570 779 q 585 772 578 776 q 576 795 581 784 q 570 779 573 787 m 605 872 q 618 854 612 863 q 664 717 659 795 q 665 690 665 705 q 714 524 705 615 q 707 349 722 432 q 678 245 697 298 q 784 295 736 259 q 868 377 831 330 l 920 335 q 800 224 869 269 q 646 174 730 180 q 577 79 617 121 q 398 -12 492 -6 q 315 -4 355 -14 q 294 -66 304 -35 q 249 -52 266 -58 q 205 -37 233 -46 q 223 39 214 -1 l 223 39 q 96 199 142 96 q 46 422 52 300 q 77 659 41 544 q 195 854 113 773 q 338 934 254 909 q 502 937 421 959 l 507 936 q 532 1001 519 969 l 642 961 q 605 872 623 918 m 340 74 q 425 65 380 58 q 571 179 505 78 q 426 256 486 197 q 405 278 415 267 q 340 74 373 174 z "},"Ù":{"ha":777,"x_min":41,"x_max":736,"o":"m 552 90 l 552 90 q 417 -3 498 19 q 254 3 336 -25 q 115 113 172 32 q 51 330 58 195 q 55 940 41 634 l 250 934 q 214 301 220 591 q 263 101 214 157 q 378 54 312 44 q 492 122 444 64 q 540 264 541 180 q 541 940 526 597 l 736 934 q 706 483 715 681 q 696 3 698 285 q 561 4 629 3 q 552 90 556 45 m 288 1212 l 288 1212 q 370 1175 331 1215 q 430 1086 410 1135 q 436 1016 450 1037 q 394 1014 427 1005 q 325 1047 362 1023 q 265 1105 288 1071 q 249 1181 241 1140 q 288 1212 256 1206 z "},"Ú":{"ha":777,"x_min":41,"x_max":736,"o":"m 552 90 l 552 90 q 417 -3 498 19 q 254 3 336 -25 q 115 113 172 32 q 51 330 58 195 q 55 940 41 634 l 250 934 q 214 301 220 591 q 263 101 214 157 q 378 54 312 44 q 492 122 444 64 q 540 264 541 180 q 541 940 526 597 l 736 934 q 706 483 715 681 q 696 3 698 285 q 561 4 629 3 q 552 90 556 45 m 504 1212 l 504 1212 q 421 1175 460 1215 q 362 1086 382 1135 q 355 1016 342 1037 q 398 1014 366 1005 q 467 1047 430 1023 q 527 1105 503 1071 q 543 1181 550 1140 q 504 1212 535 1206 z "},"Û":{"ha":777,"x_min":41,"x_max":736,"o":"m 552 90 l 552 90 q 417 -3 498 19 q 254 3 336 -25 q 115 113 172 32 q 51 330 58 195 q 55 940 41 634 l 250 934 q 214 301 220 591 q 263 101 214 157 q 378 54 312 44 q 492 122 444 64 q 540 264 541 180 q 541 940 526 597 l 736 934 q 706 483 715 681 q 696 3 698 285 q 561 4 629 3 q 552 90 556 45 m 304 1055 l 304 1055 l 451 1244 l 599 1055 l 541 1000 l 451 1122 l 365 996 l 304 1055 z "},"Ü":{"ha":777,"x_min":41,"x_max":736,"o":"m 552 90 l 552 90 q 417 -3 498 19 q 254 3 336 -25 q 115 113 172 32 q 51 330 58 195 q 55 940 41 634 l 250 934 q 214 301 220 591 q 263 101 214 157 q 378 54 312 44 q 492 122 444 64 q 540 264 541 180 q 541 940 526 597 l 736 934 q 706 483 715 681 q 696 3 698 285 q 561 4 629 3 q 552 90 556 45 m 260 1016 l 260 1016 q 259 1074 259 1044 q 258 1139 260 1106 l 393 1139 q 393 1019 393 1082 q 344 1018 370 1019 q 260 1016 300 1016 m 438 1139 l 438 1139 l 573 1139 q 572 1019 572 1083 q 524 1018 549 1019 q 439 1017 479 1017 q 439 1075 439 1044 q 438 1139 439 1107 z "},"Ý":{"ha":724,"x_min":41,"x_max":684,"o":"m 527 165 l 527 165 q 412 86 480 111 q 275 75 345 62 q 154 140 205 87 q 80 299 104 197 q 48 519 55 401 q 43 744 41 637 q 49 920 45 851 q 50 930 50 925 l 245 924 q 241 881 243 907 q 220 592 229 771 q 231 292 210 414 q 299 173 251 203 q 399 160 347 143 q 489 231 452 178 q 524 364 526 285 q 496 713 513 549 q 481 930 481 867 l 677 930 q 680 764 677 868 q 683 404 684 595 q 666 92 683 212 q 618 -47 654 17 q 519 -138 582 -111 q 405 -144 463 -159 q 309 -81 346 -128 l 385 -25 q 423 -52 400 -45 q 500 -9 476 -71 q 527 165 524 53 m 420 1212 l 420 1212 q 338 1175 377 1215 q 278 1086 298 1135 q 272 1016 258 1037 q 314 1014 282 1005 q 383 1047 347 1023 q 443 1105 420 1071 q 459 1181 467 1140 q 420 1212 452 1206 z "},"à":{"ha":598,"x_min":41,"x_max":557,"o":"m 214 708 l 214 708 q 376 701 296 725 q 505 605 457 677 q 553 437 548 532 q 551 253 557 343 q 551 245 551 249 q 529 -1 544 123 q 393 -1 462 -2 q 393 60 393 31 q 380 45 387 53 q 215 -23 313 -23 q 200 -22 207 -22 q 131 3 163 -17 q 79 56 100 23 q 45 174 48 106 q 78 357 41 267 q 190 499 117 450 q 276 528 229 524 q 279 528 277 528 q 286 528 283 528 q 379 499 336 528 q 378 520 378 509 l 377 520 q 358 585 376 558 q 313 625 340 611 q 253 642 286 640 q 191 633 220 644 q 140 595 161 621 q 112 526 119 568 l 45 536 q 88 637 56 598 q 166 695 121 677 q 214 707 190 704 q 214 707 214 707 q 214 708 214 707 m 332 93 l 332 93 q 391 212 381 143 q 387 368 389 298 q 370 414 382 395 q 269 385 319 430 q 189 269 220 340 q 162 133 158 198 q 223 44 166 68 q 222 44 223 44 q 222 44 222 44 q 332 93 287 46 m 392 753 l 392 753 q 350 751 382 743 q 281 784 317 760 q 220 843 244 808 q 204 918 197 878 q 243 949 212 944 q 326 912 287 953 q 385 823 365 871 q 392 753 405 774 z "},"á":{"ha":598,"x_min":41,"x_max":557,"o":"m 214 708 l 214 708 q 376 701 296 725 q 505 605 457 677 q 553 437 548 532 q 551 253 557 343 q 551 245 551 249 q 529 -1 544 123 q 393 -1 462 -2 q 393 60 393 31 q 380 45 387 53 q 215 -23 313 -23 q 200 -22 207 -22 q 131 3 163 -17 q 79 56 100 23 q 45 174 48 106 q 78 357 41 267 q 190 499 117 450 q 276 528 229 524 q 279 528 277 528 q 286 528 283 528 q 379 499 336 528 q 378 520 378 509 l 377 520 q 358 585 376 558 q 313 625 340 611 q 253 642 286 640 q 191 633 220 644 q 140 595 161 621 q 112 526 119 568 l 45 536 q 88 637 56 598 q 166 695 121 677 q 214 707 190 704 q 214 707 214 707 q 214 708 214 707 m 332 93 l 332 93 q 391 212 381 143 q 387 368 389 298 q 370 414 382 395 q 269 385 319 430 q 189 269 220 340 q 162 133 158 198 q 223 44 166 68 q 222 44 223 44 q 222 44 222 44 q 332 93 287 46 m 395 918 l 395 918 q 379 843 402 878 q 319 784 355 808 q 250 751 282 760 q 208 753 218 743 q 214 823 194 774 q 274 912 235 871 q 356 949 313 953 q 395 918 388 944 z "},"â":{"ha":598,"x_min":41,"x_max":557,"o":"m 214 708 l 214 708 q 376 701 296 725 q 505 605 457 677 q 553 437 548 532 q 551 253 557 343 q 551 245 551 249 q 529 -1 544 123 q 393 -1 462 -2 q 393 60 393 31 q 380 45 387 53 q 215 -23 313 -23 q 200 -22 207 -22 q 131 3 163 -17 q 79 56 100 23 q 45 174 48 106 q 78 357 41 267 q 190 499 117 450 q 276 528 229 524 q 279 528 277 528 q 286 528 283 528 q 379 499 336 528 q 378 520 378 509 l 377 520 q 358 585 376 558 q 313 625 340 611 q 253 642 286 640 q 191 633 220 644 q 140 595 161 621 q 112 526 119 568 l 45 536 q 88 637 56 598 q 166 695 121 677 q 214 707 190 704 q 214 707 214 707 q 214 708 214 707 m 332 93 l 332 93 q 391 212 381 143 q 387 368 389 298 q 370 414 382 395 q 269 385 319 430 q 189 269 220 340 q 162 133 158 198 q 223 44 166 68 q 222 44 223 44 q 222 44 222 44 q 332 93 287 46 m 300 860 l 300 860 l 213 734 l 153 791 l 300 982 l 447 791 l 389 737 l 300 860 z "},"ã":{"ha":598,"x_min":41,"x_max":557,"o":"m 214 708 l 214 708 q 376 701 296 725 q 505 605 457 677 q 553 437 548 532 q 551 253 557 343 q 551 245 551 249 q 529 -1 544 123 q 393 -1 462 -2 q 393 60 393 31 q 380 45 387 53 q 215 -23 313 -23 q 200 -22 207 -22 q 131 3 163 -17 q 79 56 100 23 q 45 174 48 106 q 78 357 41 267 q 190 499 117 450 q 276 528 229 524 q 279 528 277 528 q 286 528 283 528 q 379 499 336 528 q 378 520 378 509 l 377 520 q 358 585 376 558 q 313 625 340 611 q 253 642 286 640 q 191 633 220 644 q 140 595 161 621 q 112 526 119 568 l 45 536 q 88 637 56 598 q 166 695 121 677 q 214 707 190 704 q 214 707 214 707 q 214 708 214 707 m 332 93 l 332 93 q 391 212 381 143 q 387 368 389 298 q 370 414 382 395 q 269 385 319 430 q 189 269 220 340 q 162 133 158 198 q 223 44 166 68 q 222 44 223 44 q 222 44 222 44 q 332 93 287 46 m 312 762 l 312 762 q 207 782 252 781 q 142 753 162 783 q 189 845 142 827 q 293 844 236 863 q 300 841 297 842 q 358 825 328 831 q 415 825 389 819 q 454 863 441 832 q 443 788 463 814 q 387 756 423 762 q 312 762 351 751 z "},"ä":{"ha":598,"x_min":41,"x_max":557,"o":"m 214 708 l 214 708 q 376 701 296 725 q 505 605 457 677 q 553 437 548 532 q 551 253 557 343 q 551 245 551 249 q 529 -1 544 123 q 393 -1 462 -2 q 393 60 393 31 q 380 45 387 53 q 215 -23 313 -23 q 200 -22 207 -22 q 131 3 163 -17 q 79 56 100 23 q 45 174 48 106 q 78 357 41 267 q 190 499 117 450 q 276 528 229 524 q 279 528 277 528 q 286 528 283 528 q 379 499 336 528 q 378 520 378 509 l 377 520 q 358 585 376 558 q 313 625 340 611 q 253 642 286 640 q 191 633 220 644 q 140 595 161 621 q 112 526 119 568 l 45 536 q 88 637 56 598 q 166 695 121 677 q 214 707 190 704 q 214 707 214 707 q 214 708 214 707 m 332 93 l 332 93 q 391 212 381 143 q 387 368 389 298 q 370 414 382 395 q 269 385 319 430 q 189 269 220 340 q 162 133 158 198 q 223 44 166 68 q 222 44 223 44 q 222 44 222 44 q 332 93 287 46 m 276 756 l 276 756 q 228 755 253 755 q 144 753 184 753 q 143 811 143 781 q 142 876 143 844 l 277 876 q 276 756 277 820 m 456 757 l 456 757 q 407 755 433 756 q 323 754 363 754 q 323 812 323 782 q 322 876 323 844 l 457 876 q 456 757 456 820 z "},"å":{"ha":598,"x_min":41,"x_max":557,"o":"m 391 696 l 391 696 q 505 605 463 670 q 553 437 548 532 q 551 252 557 343 q 551 245 551 249 q 529 -1 544 123 q 393 -1 462 -2 q 393 14 393 7 q 393 60 393 38 q 380 45 387 53 q 215 -23 313 -23 q 200 -22 207 -22 q 131 3 163 -17 q 79 56 100 23 q 45 174 48 106 q 78 357 41 267 q 190 499 117 450 q 276 528 229 524 q 279 528 277 528 q 286 528 283 528 q 379 499 336 528 q 378 520 378 509 l 377 520 q 358 585 376 558 q 313 625 340 611 q 253 642 286 640 q 191 633 220 644 q 140 595 161 621 q 112 526 119 568 l 45 536 q 88 637 56 598 q 166 695 121 677 q 200 705 183 701 q 176 779 176 737 q 212 867 176 831 q 300 903 248 903 q 388 867 351 903 q 424 779 424 831 q 391 696 424 731 m 300 707 l 300 707 q 351 728 330 707 q 372 779 372 749 q 351 830 372 809 q 300 852 330 852 q 249 830 270 852 q 227 779 227 809 q 249 728 227 749 q 300 707 270 707 m 332 93 l 332 93 q 391 212 381 143 q 387 368 389 298 q 370 414 382 395 q 269 385 319 430 q 189 269 220 340 q 162 133 158 198 q 223 44 166 68 q 222 44 222 44 q 332 93 287 46 z "},"æ":{"ha":1135,"x_min":41,"x_max":1095,"o":"m 772 83 l 772 83 q 925 170 859 108 q 1032 309 990 231 l 1095 270 q 973 111 1046 179 q 800 14 900 43 q 644 3 721 -9 q 534 50 581 16 q 529 -1 532 24 q 393 -1 462 -2 q 393 60 393 31 q 380 45 387 53 q 215 -23 313 -23 q 201 -22 207 -22 q 131 3 163 -17 q 79 56 100 23 q 45 174 48 106 q 78 357 41 267 q 190 499 117 450 q 276 528 229 524 q 279 528 277 528 q 286 528 283 528 q 379 499 336 528 q 378 520 378 509 l 377 520 q 358 585 376 558 q 313 625 340 611 q 253 642 286 640 q 191 633 221 644 q 140 595 161 621 q 112 526 119 568 l 45 536 q 88 637 56 598 q 167 695 121 677 q 214 707 190 704 q 214 707 214 707 q 214 708 214 707 q 368 704 291 724 q 495 621 445 683 q 587 697 533 671 q 708 717 640 724 q 825 663 772 709 q 898 540 878 614 q 878 401 918 466 q 790 327 846 357 q 672 279 734 297 q 558 251 610 260 q 626 112 572 163 q 772 83 679 61 m 332 93 l 332 93 q 391 212 381 143 q 387 368 389 298 q 370 414 382 395 q 269 385 319 430 q 189 269 220 340 q 162 133 158 198 q 223 44 166 68 q 223 44 223 44 q 222 44 223 44 q 332 93 287 46 m 555 366 l 555 366 q 554 319 555 342 q 659 344 604 328 q 760 387 713 361 q 815 458 806 415 q 807 541 825 502 q 751 596 789 581 q 666 583 714 611 q 588 489 614 548 q 555 366 562 429 z "},"è":{"ha":638,"x_min":41,"x_max":734,"o":"m 412 83 l 412 83 q 565 170 499 108 q 672 309 630 231 l 734 270 q 613 111 686 179 q 440 14 540 43 q 284 3 361 -9 q 117 107 174 26 q 50 295 60 188 q 74 502 41 401 q 176 664 106 602 q 348 717 246 726 q 465 663 412 709 q 538 540 518 614 q 517 401 558 466 q 430 327 486 357 q 312 279 374 297 q 198 251 250 260 q 266 112 212 163 q 412 83 319 61 m 306 583 l 306 583 q 240 511 265 555 q 204 416 215 467 q 193 318 193 365 q 297 344 242 328 q 400 387 353 361 q 455 458 446 415 q 447 541 465 502 q 391 596 429 581 q 306 583 354 611 m 398 753 l 398 753 q 356 751 388 743 q 287 784 323 760 q 227 843 250 808 q 210 918 203 878 q 249 949 218 944 q 332 912 293 953 q 391 823 371 871 q 398 753 411 774 z "},"é":{"ha":775,"x_min":41,"x_max":734,"o":"m 412 83 l 412 83 q 565 170 499 108 q 672 309 630 231 l 734 270 q 613 111 686 179 q 440 14 540 43 q 284 3 361 -9 q 117 107 174 26 q 50 295 60 188 q 74 502 41 401 q 176 664 106 602 q 348 717 246 726 q 465 663 412 709 q 538 540 518 614 q 517 401 558 466 q 430 327 486 357 q 312 279 374 297 q 198 251 250 260 q 266 112 212 163 q 412 83 319 61 m 306 583 l 306 583 q 240 511 265 555 q 204 416 215 467 q 193 318 193 365 q 297 344 242 328 q 400 387 353 361 q 455 458 446 415 q 447 541 465 502 q 391 596 429 581 q 306 583 354 611 m 442 918 l 442 918 q 426 843 450 878 q 366 784 402 808 q 297 751 329 760 q 254 753 264 743 q 261 823 241 774 q 320 912 281 871 q 403 949 359 953 q 442 918 435 944 z "},"ê":{"ha":638,"x_min":41,"x_max":734,"o":"m 412 83 l 412 83 q 565 170 499 108 q 672 309 630 231 l 734 270 q 613 111 686 179 q 440 14 540 43 q 284 3 361 -9 q 117 107 174 26 q 50 295 60 188 q 74 502 41 401 q 176 664 106 602 q 348 717 246 726 q 465 663 412 709 q 538 540 518 614 q 517 401 558 466 q 430 327 486 357 q 312 279 374 297 q 198 251 250 260 q 266 112 212 163 q 412 83 319 61 m 306 583 l 306 583 q 240 511 265 555 q 204 416 215 467 q 193 318 193 365 q 297 344 242 328 q 400 387 353 361 q 455 458 446 415 q 447 541 465 502 q 391 596 429 581 q 306 583 354 611 m 313 860 l 313 860 l 227 734 l 165 791 l 313 982 l 460 791 l 402 737 l 313 860 z "},"ë":{"ha":638,"x_min":41,"x_max":734,"o":"m 412 83 l 412 83 q 565 170 499 108 q 672 309 630 231 l 734 270 q 613 111 686 179 q 440 14 540 43 q 284 3 361 -9 q 117 107 174 26 q 50 295 60 188 q 74 502 41 401 q 176 664 106 602 q 348 717 246 726 q 465 663 412 709 q 538 540 518 614 q 517 401 558 466 q 430 327 486 357 q 312 279 374 297 q 198 251 250 260 q 266 112 212 163 q 412 83 319 61 m 306 583 l 306 583 q 240 511 265 555 q 204 416 215 467 q 193 318 193 365 q 297 344 242 328 q 400 387 353 361 q 455 458 446 415 q 447 541 465 502 q 391 596 429 581 q 306 583 354 611 m 279 756 l 279 756 q 231 755 256 755 q 147 753 187 753 q 146 811 146 781 q 146 876 146 844 l 281 876 q 279 756 280 820 m 459 757 l 459 757 q 411 755 436 756 q 327 754 367 754 q 326 812 326 782 q 326 876 326 844 l 460 876 q 459 757 460 820 z "},"ì":{"ha":325,"x_min":41,"x_max":284,"o":"m 125 -1 l 125 -1 q 99 715 90 322 l 284 715 q 267 384 273 547 q 261 -1 262 221 q 125 -1 193 -2 m 235 753 l 235 753 q 193 751 225 743 q 124 784 161 760 q 64 843 87 808 q 47 918 41 878 q 87 949 56 944 q 169 912 130 953 q 229 823 208 871 q 235 753 249 774 z "},"í":{"ha":321,"x_min":41,"x_max":281,"o":"m 76 0 l 76 0 q 50 716 41 323 l 235 716 q 218 385 223 548 q 212 -1 212 222 q 76 0 143 -1 m 235 949 l 235 949 q 273 918 266 944 q 257 843 281 878 q 197 784 234 808 q 128 751 160 760 q 86 753 96 743 q 93 823 73 774 q 152 912 113 871 q 235 949 191 953 z "},"î":{"ha":376,"x_min":41,"x_max":336,"o":"m 123 1 l 123 1 q 96 717 87 323 l 281 717 q 264 386 270 549 q 258 1 259 223 q 123 1 190 -1 m 41 791 l 41 791 l 189 982 l 336 791 l 278 737 l 189 860 l 102 734 l 41 791 z "},"ï":{"ha":396,"x_min":41,"x_max":355,"o":"m 132 1 l 132 1 q 105 718 96 325 l 290 718 q 273 387 279 549 q 267 1 268 224 q 132 1 199 0 m 176 876 l 176 876 q 175 756 175 820 q 126 755 152 755 q 42 753 82 753 q 42 811 41 781 q 41 876 42 844 l 176 876 m 222 754 l 222 754 q 221 812 221 782 q 220 876 222 844 l 355 876 q 355 757 355 820 q 306 755 332 756 q 222 754 262 754 z "},"ñ":{"ha":672,"x_min":41,"x_max":631,"o":"m 475 696 l 475 696 q 585 596 552 667 q 625 437 618 525 q 629 270 631 349 q 625 -2 626 150 q 490 -2 557 -3 q 470 314 473 160 q 464 468 468 389 q 464 471 464 469 q 457 537 463 500 q 434 600 452 573 q 379 629 416 627 q 313 597 341 629 q 253 488 275 555 q 223 350 232 421 q 214 224 214 279 q 211 -2 212 123 q 75 -2 143 -3 q 49 716 41 322 l 235 716 q 227 587 230 650 q 278 656 248 627 q 377 704 323 695 q 475 696 430 712 m 327 770 l 327 770 q 191 807 252 800 q 96 788 130 814 q 171 879 111 863 q 319 863 231 896 q 345 853 332 858 q 451 821 396 831 q 542 848 505 810 q 481 754 543 773 q 327 770 420 736 z "},"ò":{"ha":651,"x_min":41,"x_max":734,"o":"m 529 251 l 529 251 q 615 294 580 260 q 674 372 651 327 l 734 340 q 644 230 699 273 q 513 182 589 186 q 455 64 492 115 q 355 -15 414 10 q 231 -19 296 -39 q 93 121 141 14 q 54 387 41 238 q 56 407 55 397 q 57 411 56 409 q 149 634 82 561 q 237 702 189 680 q 332 722 284 723 q 391 712 365 721 q 480 640 452 690 q 507 532 508 591 q 500 476 507 504 q 531 366 524 427 q 529 251 537 304 m 401 105 l 401 105 q 444 187 428 140 q 329 257 375 203 q 274 380 283 311 q 284 474 268 431 q 335 537 300 517 q 426 543 371 558 q 441 536 433 541 q 403 607 438 591 q 323 595 368 623 q 216 444 252 545 q 183 239 180 343 q 233 75 186 134 q 321 44 275 28 q 401 105 368 59 m 461 252 l 461 252 q 464 357 469 297 q 433 457 459 417 q 406 479 420 475 q 350 461 365 490 q 340 391 334 433 q 379 302 347 340 q 461 252 411 263 m 330 753 l 330 753 q 288 751 320 743 q 219 784 256 760 q 159 843 182 808 q 142 918 136 878 q 182 949 151 944 q 264 912 225 953 q 323 823 303 871 q 330 753 344 774 z "},"ó":{"ha":651,"x_min":41,"x_max":734,"o":"m 529 251 l 529 251 q 615 294 580 260 q 674 372 651 327 l 734 340 q 644 230 699 273 q 513 182 589 186 q 455 64 492 115 q 355 -15 414 10 q 231 -19 296 -39 q 93 121 141 14 q 54 387 41 238 q 56 407 55 397 q 57 411 56 409 q 149 634 82 561 q 237 702 189 680 q 332 722 284 723 q 391 712 365 721 q 480 640 452 690 q 507 532 508 591 q 500 476 507 504 q 531 366 524 427 q 529 251 537 304 m 401 105 l 401 105 q 444 187 428 140 q 329 257 375 203 q 274 380 283 311 q 284 474 268 431 q 335 537 300 517 q 426 543 371 558 q 441 536 433 541 q 403 607 438 591 q 323 595 368 623 q 216 444 252 545 q 183 239 180 343 q 233 75 186 134 q 321 44 275 28 q 401 105 368 59 m 461 252 l 461 252 q 464 357 469 297 q 433 457 459 417 q 406 479 420 475 q 350 461 365 490 q 340 391 334 433 q 379 302 347 340 q 461 252 411 263 m 461 918 l 461 918 q 445 843 469 878 q 385 784 422 808 q 316 751 348 760 q 274 753 283 743 q 280 823 260 774 q 340 912 300 871 q 422 949 379 953 q 461 918 454 944 z "},"ô":{"ha":651,"x_min":41,"x_max":734,"o":"m 529 251 l 529 251 q 615 294 580 260 q 674 372 651 327 l 734 340 q 644 230 699 273 q 513 182 589 186 q 455 64 492 115 q 355 -15 414 10 q 231 -19 296 -39 q 93 121 141 14 q 54 387 41 238 q 56 407 55 397 q 57 411 56 409 q 149 634 82 561 q 237 702 189 680 q 332 722 284 723 q 391 712 365 721 q 480 640 452 690 q 507 532 508 591 q 500 476 507 504 q 531 366 524 427 q 529 251 537 304 m 401 105 l 401 105 q 444 187 428 140 q 329 257 375 203 q 274 380 283 311 q 284 474 268 431 q 335 537 300 517 q 426 543 371 558 q 441 536 433 541 q 403 607 438 591 q 323 595 368 623 q 216 444 252 545 q 183 239 180 343 q 233 75 186 134 q 321 44 275 28 q 401 105 368 59 m 461 252 l 461 252 q 464 357 469 297 q 433 457 459 417 q 406 479 420 475 q 350 461 365 490 q 340 391 334 433 q 379 302 347 340 q 461 252 411 263 m 297 860 l 297 860 l 210 734 l 149 791 l 297 982 l 444 791 l 387 737 l 297 860 z "},"õ":{"ha":652,"x_min":41,"x_max":734,"o":"m 530 251 l 530 251 q 616 294 581 260 q 675 372 652 327 l 734 340 q 645 230 700 273 q 513 182 590 186 q 456 64 493 115 q 355 -15 414 10 q 231 -19 296 -39 q 94 121 142 14 q 54 387 41 238 q 57 407 56 397 q 58 411 57 409 q 149 634 83 561 q 237 702 189 680 q 333 722 285 723 q 392 712 366 721 q 481 640 452 690 q 508 532 509 591 q 500 476 508 504 q 531 366 525 427 q 530 251 538 304 m 402 105 l 402 105 q 445 187 429 140 q 330 257 376 203 q 275 380 283 311 q 284 474 269 431 q 336 537 300 517 q 427 543 372 558 q 441 536 434 541 q 404 607 439 591 q 324 595 369 623 q 217 444 253 545 q 183 239 180 343 q 233 75 186 134 q 322 44 276 28 q 402 105 368 59 m 462 252 l 462 252 q 465 357 470 297 q 434 457 460 417 q 407 479 421 475 q 350 461 366 490 q 340 391 335 433 q 379 302 347 340 q 462 252 412 263 m 321 772 l 321 772 q 198 794 252 793 q 118 766 144 795 q 172 857 122 840 q 304 849 222 874 q 374 832 336 839 q 446 831 412 825 q 499 871 479 838 q 458 772 509 797 q 321 772 406 747 z "},"ö":{"ha":652,"x_min":41,"x_max":734,"o":"m 530 251 l 530 251 q 616 294 581 260 q 675 372 652 327 l 734 340 q 645 230 700 273 q 513 182 590 186 q 456 64 493 115 q 355 -15 414 10 q 231 -19 296 -39 q 94 121 142 14 q 54 387 41 238 q 57 407 56 397 q 58 411 57 409 q 149 634 83 561 q 237 702 189 680 q 333 722 285 723 q 392 712 366 721 q 481 640 452 690 q 508 532 509 591 q 500 476 508 504 q 531 366 525 427 q 530 251 538 304 m 402 105 l 402 105 q 445 187 429 140 q 330 257 376 203 q 275 380 283 311 q 284 474 269 431 q 336 537 300 517 q 427 543 372 558 q 441 536 434 541 q 404 607 439 591 q 324 595 369 623 q 217 444 253 545 q 183 239 180 343 q 233 75 186 134 q 322 44 276 28 q 402 105 368 59 m 462 252 l 462 252 q 465 357 470 297 q 434 457 460 417 q 407 479 421 475 q 350 461 366 490 q 340 391 335 433 q 379 302 347 340 q 462 252 412 263 m 278 756 l 278 756 q 229 755 255 755 q 145 753 185 753 q 144 811 144 781 q 144 876 145 844 l 279 876 q 278 756 278 820 m 458 757 l 458 757 q 409 755 435 756 q 325 754 365 754 q 324 812 324 782 q 323 876 325 844 l 458 876 q 458 757 458 820 z "},"÷":{"ha":617,"x_min":41,"x_max":576,"o":"m 391 578 l 391 578 q 332 577 363 578 q 227 576 277 575 q 225 650 225 612 q 224 727 225 688 l 393 727 q 391 578 391 658 m 41 523 l 41 523 q 260 523 146 524 q 576 524 420 523 l 572 399 q 273 399 402 403 q 44 398 170 397 l 41 523 m 227 195 l 227 195 q 225 269 225 231 q 224 347 225 308 l 393 347 q 391 198 391 277 q 336 197 365 198 q 227 195 279 195 z "},"ø":{"ha":652,"x_min":41,"x_max":734,"o":"m 530 251 l 530 251 q 616 294 581 260 q 675 372 652 327 l 734 340 q 645 230 700 273 q 513 182 590 186 q 456 64 493 115 q 364 -11 418 14 q 251 -24 311 -36 q 231 -83 241 -54 q 196 -71 209 -75 q 161 -59 182 -66 q 176 11 167 -28 q 94 121 125 51 q 54 387 41 238 q 57 407 56 397 q 58 411 57 409 q 149 634 83 561 q 237 702 189 680 q 333 722 285 723 q 392 712 366 721 q 398 710 395 711 q 423 776 412 745 l 511 744 q 474 651 492 699 q 481 640 477 646 q 508 532 509 591 q 500 476 508 504 q 531 366 525 427 q 530 251 538 304 m 439 557 l 439 557 q 433 540 436 549 q 441 536 437 538 q 439 557 441 547 m 206 121 l 206 121 q 278 358 238 233 q 275 380 276 369 q 285 475 269 432 q 338 538 301 518 q 363 611 351 576 q 324 595 344 608 q 225 466 261 551 q 184 286 189 380 q 206 121 178 191 m 402 105 l 402 105 q 445 187 429 140 q 338 248 382 202 q 322 199 330 224 q 273 45 298 121 q 342 52 309 33 q 402 105 376 71 m 462 252 l 462 252 q 465 357 470 297 q 434 457 460 417 q 412 477 423 471 q 362 326 387 403 q 462 252 396 268 z "},"ù":{"ha":661,"x_min":41,"x_max":621,"o":"m 438 314 l 438 314 q 435 716 431 511 l 621 716 q 603 384 608 547 q 597 -2 597 221 q 461 -2 528 -3 q 450 106 455 50 q 304 0 397 16 q 134 54 210 -16 q 78 146 96 92 q 54 259 60 200 q 47 370 49 317 q 47 374 47 372 q 43 716 41 541 l 229 716 q 212 387 216 549 q 211 370 211 379 q 210 251 208 315 q 229 137 212 186 q 301 74 258 67 q 385 132 345 81 q 426 218 414 170 q 438 314 438 266 m 364 753 l 364 753 q 322 751 354 743 q 253 784 290 760 q 193 843 216 808 q 176 918 170 878 q 216 949 184 944 q 298 912 259 953 q 357 823 337 871 q 364 753 378 774 z "},"ú":{"ha":661,"x_min":41,"x_max":621,"o":"m 438 314 l 438 314 q 435 716 431 511 l 621 716 q 603 384 608 547 q 597 -2 597 221 q 461 -2 528 -3 q 450 106 455 50 q 304 0 397 16 q 134 54 210 -16 q 78 146 96 92 q 54 259 60 200 q 47 370 49 317 q 47 374 47 372 q 43 716 41 541 l 229 716 q 212 387 216 549 q 211 370 211 379 q 210 251 208 315 q 229 137 212 186 q 301 74 258 67 q 385 132 345 81 q 426 218 414 170 q 438 314 438 266 m 514 918 l 514 918 q 498 843 522 878 q 438 784 475 808 q 369 751 401 760 q 326 753 336 743 q 333 823 313 774 q 393 912 353 871 q 475 949 432 953 q 514 918 507 944 z "},"û":{"ha":661,"x_min":41,"x_max":621,"o":"m 438 314 l 438 314 q 435 716 431 511 l 621 716 q 603 384 608 547 q 597 -2 597 221 q 461 -2 528 -3 q 450 106 455 50 q 304 0 397 16 q 134 54 210 -16 q 78 146 96 92 q 54 259 60 200 q 47 370 49 317 q 47 374 47 372 q 43 716 41 541 l 229 716 q 212 387 216 549 q 211 370 211 379 q 210 251 208 315 q 229 137 212 186 q 301 74 258 67 q 385 132 345 81 q 426 218 414 170 q 438 314 438 266 m 331 860 l 331 860 l 244 734 l 183 791 l 331 982 l 478 791 l 420 737 l 331 860 z "},"ü":{"ha":661,"x_min":41,"x_max":621,"o":"m 438 314 l 438 314 q 435 716 431 511 l 621 716 q 603 384 608 547 q 596 -2 597 221 q 461 -2 528 -3 q 450 106 455 50 q 304 0 397 16 q 134 54 210 -16 q 78 146 96 92 q 54 259 60 200 q 47 370 49 317 q 47 374 47 372 q 43 716 41 541 l 229 716 q 212 387 216 549 q 211 370 211 379 q 209 251 208 315 q 228 137 211 186 q 301 74 258 67 q 385 132 345 81 q 426 218 414 170 q 438 314 438 266 m 325 756 l 325 756 q 276 755 302 755 q 192 753 232 753 q 191 811 191 781 q 191 876 192 844 l 326 876 q 325 756 325 820 m 505 757 l 505 757 q 456 755 481 756 q 372 754 412 754 q 371 812 371 782 q 370 876 371 844 l 505 876 q 505 757 505 820 z "},"ý":{"ha":652,"x_min":41,"x_max":611,"o":"m 406 719 l 406 719 l 603 719 q 606 553 603 649 q 611 278 611 420 q 594 26 610 136 q 546 -113 583 -50 q 448 -205 510 -177 q 333 -211 391 -227 q 237 -148 274 -195 l 313 -92 q 359 -121 330 -114 q 412 -110 389 -129 q 452 105 465 -53 q 349 20 410 49 q 218 22 288 -8 q 112 136 151 59 q 60 283 73 212 q 41 490 41 389 q 46 671 41 590 q 49 719 47 696 l 243 712 q 235 639 241 683 q 218 492 226 575 q 214 319 211 409 q 226 222 216 280 q 262 119 236 163 q 338 77 289 74 q 416 140 383 83 q 446 287 448 197 q 422 528 435 419 q 406 719 406 656 m 483 918 l 483 918 q 467 843 490 878 q 407 784 444 808 q 337 751 370 760 q 295 753 305 743 q 302 823 282 774 q 361 912 322 871 q 444 949 401 953 q 483 918 475 944 z "},"ÿ":{"ha":652,"x_min":41,"x_max":611,"o":"m 603 719 l 603 719 q 606 553 603 649 q 611 278 611 420 q 594 26 610 136 q 546 -113 583 -50 q 448 -205 510 -177 q 333 -211 391 -227 q 237 -148 274 -195 l 313 -92 q 359 -121 330 -114 q 412 -110 389 -129 q 452 105 465 -53 q 349 20 410 49 q 218 22 288 -8 q 112 136 151 59 q 60 283 73 212 q 41 490 41 389 q 46 671 41 590 q 49 719 47 696 l 243 712 q 235 639 241 683 q 218 492 226 575 q 214 319 211 409 q 226 222 216 280 q 262 119 236 163 q 338 77 289 74 q 416 140 383 83 q 446 287 448 197 q 422 528 435 419 q 406 719 406 656 l 603 719 m 302 756 l 302 756 q 253 755 279 755 q 169 753 209 753 q 168 811 168 781 q 168 876 169 844 l 302 876 q 302 756 302 820 m 481 757 l 481 757 q 433 755 458 756 q 349 754 389 754 q 348 812 348 782 q 347 876 348 844 l 482 876 q 481 757 481 820 z "},"‘":{"ha":216,"x_min":41,"x_max":175,"o":"m 139 861 l 139 861 q 145 842 140 849 q 157 829 150 835 q 169 814 163 823 q 175 793 174 806 q 151 751 175 766 q 96 745 127 736 q 53 791 64 758 q 55 863 41 825 q 115 926 69 901 q 156 929 140 937 q 157 898 172 921 q 153 893 155 896 q 143 879 148 887 q 139 861 139 871 z "},"’":{"ha":216,"x_min":41,"x_max":175,"o":"m 119 929 l 119 929 q 163 884 151 918 q 161 811 175 850 q 100 749 146 773 q 59 745 75 737 q 59 777 43 753 q 62 781 60 779 q 72 796 68 788 q 77 814 77 804 q 71 832 76 825 q 59 846 66 840 q 47 860 52 852 q 41 881 41 868 q 64 923 41 908 q 119 929 88 938 z "},"‚":{"ha":216,"x_min":41,"x_max":175,"o":"m 120 191 l 120 191 q 163 146 151 180 q 161 74 175 112 q 100 11 146 35 q 59 8 75 0 q 59 39 43 16 q 62 43 60 41 q 72 58 68 50 q 77 77 77 66 q 71 95 76 87 q 59 109 66 102 q 47 122 52 115 q 41 143 41 130 q 64 186 41 171 q 120 191 88 201 z "},"“":{"ha":363,"x_min":41,"x_max":322,"o":"m 140 861 l 140 861 q 145 842 140 849 q 157 829 151 835 q 169 814 163 823 q 176 793 175 806 q 152 751 175 766 q 96 745 128 736 q 53 791 64 758 q 55 863 41 825 q 115 926 69 901 q 156 929 140 937 q 157 898 172 921 q 153 893 155 895 q 143 879 148 886 q 140 861 139 871 m 286 861 l 286 861 q 292 842 287 849 q 303 829 297 835 q 316 814 311 823 q 322 793 321 806 q 298 751 321 766 q 243 745 275 736 q 199 791 211 758 q 202 863 188 825 q 262 926 216 901 q 303 929 287 937 q 304 898 319 921 q 300 894 302 896 q 290 879 294 887 q 286 861 286 871 z "},"”":{"ha":362,"x_min":41,"x_max":321,"o":"m 120 929 l 120 929 q 164 884 152 918 q 161 811 176 850 q 101 749 147 773 q 60 745 76 737 q 60 777 44 753 q 63 781 61 779 q 73 796 68 788 q 77 814 77 804 q 71 832 76 825 q 60 846 66 840 q 47 860 52 852 q 41 881 41 868 q 65 923 41 908 q 120 929 88 938 m 267 929 l 267 929 q 310 884 298 918 q 307 811 321 850 q 248 749 293 773 q 207 745 222 737 q 205 777 191 753 q 209 781 208 779 q 219 795 215 787 q 224 814 224 804 q 217 832 222 825 q 206 846 212 840 q 193 860 199 852 q 187 881 188 868 q 211 923 188 908 q 267 929 235 938 z "},"„":{"ha":362,"x_min":41,"x_max":321,"o":"m 120 191 l 120 191 q 163 146 152 180 q 161 74 175 112 q 101 11 146 35 q 60 8 76 0 q 59 39 44 16 q 63 44 61 41 q 73 58 68 50 q 77 77 77 66 q 71 95 76 87 q 60 109 66 102 q 47 122 52 115 q 41 143 41 130 q 65 186 41 171 q 120 191 88 201 m 267 191 l 267 191 q 310 146 298 180 q 308 74 321 112 q 248 11 294 35 q 207 8 222 0 q 205 39 191 16 q 210 43 208 41 q 219 58 215 50 q 223 77 224 66 q 217 95 222 87 q 206 109 212 102 q 193 123 199 115 q 187 143 188 131 q 211 186 188 171 q 267 191 235 201 z "},"":{"ha":1124,"x_min":41,"x_max":1084,"o":"m 496 804 q 475 429 481 610 q 467 4 469 248 q 332 5 399 3 q 307 801 294 366 q 59 769 182 794 l 41 916 q 371 952 180 943 q 753 952 562 962 q 1084 916 945 943 l 1065 769 q 810 802 939 795 q 788 427 795 604 q 780 4 782 250 q 645 5 713 3 q 620 386 625 176 q 621 805 614 596 q 558 809 584 810 q 496 804 532 809 l 496 804 l 496 804 z "},"":{"ha":81,"x_min":0,"x_max":0,"o":""}}}
